
<svg xmlns="http://www.w3.org/2000/svg" version="1.1" xmlns:xlink="http://www.w3.org/1999/xlink" preserveAspectRatio="none" x="0px" y="0px" width="1024px" height="768px" viewBox="0 0 1024 768">
<defs/>

<g id="BG">
<g>
<g>
<g>
<path fill="#000000" stroke="none" d="
M 1048.05 774.5
L 1048.05 -9.5 -23.95 -9.5 -23.95 774.5 1048.05 774.5 Z"/>
</g>
</g>
</g>
</g>

<g id="Drafts"/>

<g id="Char"/>

<g id="Text02"/>

<g id="Layer_1"/>

<g id="Layer_1"/>

<g id="Layer_1"/>

<g id="_Layer_"/>

<g id="_Layer_">
<g>
<g>
<g>
<path fill="#000000" stroke="none" d="
M 786.3 384
Q 786.3 328.2 764.75 277.25 743.95 228.05 705.95 190.1 678.405859375 162.51953125 644.9 144 632.290625 137.0033203125 618.8 131.3 567.85 109.75 512.05 109.75 456.25 109.75 405.3 131.3 391.795703125 137.0033203125 379.15 144 345.644140625 162.51953125 318.1 190.1 309.44296875 198.75703125 301.65 208 275.39375 239.2734375 259.3 277.25 259.25 277.368359375 259.2 277.45 258.5869140625 278.9416015625 258 280.4 250.0294921875 299.876953125 245.2 320.05 237.75 351.19140625 237.75 384 237.75 414.315625 244.1 443.2 249.43046875 467.3568359375 259.2 490.5 259.2498046875 490.6314453125 259.3 490.75 280.15 540 318.1 577.95 356.05 615.95 405.3 636.75 456.25 658.3 512.05 658.3 567.85 658.3 618.8 636.75 668 615.95 705.95 577.95 743.95 540 764.75 490.75 786.3 439.8 786.3 384 Z"/>
</g>
</g>
</g>

<g>
<g>
<g>
<path fill="#FFFFFF" stroke="none" d="
M 652.5 290.95
Q 651.75 289.9 648.35 287.8 646.8 286.9 646 286.3 645 285 643.95 281.85 642.05 276.7 640.75 274.9
L 640.65 274.75
Q 639.7 273.5 638.25 272.7
L 638.25 272.1
Q 638.4 267.3 636.1 264.85
L 635.4 264.3
Q 634.85 263.85 633.3 263.4
L 633.1 263.3 632.2 262.05 632.1 261.95
Q 630.8 260.15 630.4 259.85
L 629.8 259.3
Q 628.6 258.5 626.3 258.15
L 625.65 257
Q 624.05 253.9 622.7 252.75 620.9 251.1 617.5 250.1
L 615.25 249.4
Q 612.9 247.9 610.8 247.3 610.15 247.1 605.7 246.35
L 605.45 246.35 599.95 245.75
Q 596.9 245.4 593.75 244.9 592.9 243.4 591.8 242.5 590 241.15 585.1 239.3 582.2 238.2 580.7 237.2 579.7 235.9 578.4 233.85 575.75 230 573.45 228.95 572.2 228.5 571.25 228.5 570.95 228.15 570.25 227.65
L 570.1 227.55
Q 569.05 226.95 566.15 225.95 565.3 225.65 564.95 225.4
L 563.3 222.7
Q 561.45 219.65 557.35 219.65
L 555.6 219.8
Q 555.3 219.8 555 219.95 554.1 220.2 552.8 221.1
L 552.4 221.1
Q 550.4 221.1 545.5 220.1 540.2 218.95 536.2 218.95 534.6 218.95 533.4 219.1 532.05 219.3 528.85 220.55 527.35 221.05 526.05 221.25
L 512.2 221.2
Q 509.95 221.2 506.3 222.75
L 506.15 222.8 504.25 223.6
Q 503.3 223.3 502.35 223.3 501.3 223.3 500.45 223.65 498.9 224.2 497.95 225.6 497.35 225.6 497 225.55
L 494.9 225.5
Q 493.35 225.5 492.35 225.75 490.75 226.25 489.8 227.5 488.05 227.05 487.05 227.05
L 486.9 227.05
Q 485.2 227.05 479.55 228.25 476 228.9 474.65 228.9
L 473.35 228.4
Q 471.35 227.55 469.3 227.55
L 468.6 227.6
Q 466.95 227.65 465.6 228.8
L 465.45 228.75
Q 463.8 228.25 462.35 228.25 461.45 228.25 460.35 228.5 459.1 228.95 458.25 229.8 457.4 229.8 457.1 229.85 455.8 230 454.6 230.75 453.75 230.5 452.45 230.5 450.6 230.5 448.7 231.15
L 448.15 231.4
Q 444.6 233.3 442.95 233.7
L 442.85 233.75
Q 440.65 234.35 436.15 235.35 431.4 236.35 428.6 237.3
L 428 237.55
Q 424.4 239.6 423.7 243.45
L 423.4 243.55
Q 419.7 244.45 418.2 245.7
L 418.1 245.8
Q 416.9 246.85 416 247.6 413.55 249.7 413.5 249.8 413.4 249.9 413 250.4 412.7 250.85 412.6 251.2 412.5 251.4 412.45 251.55 411.15 252 408.75 252.45 403.25 253.7 401.4 254.85 400.9 255.1 400.3 255.7
L 399.35 255.55 399.05 255.55
Q 397.1 255.55 394.65 256.95 392.55 258.2 389.45 260.8 389.05 261.15 388.65 261.5 382.25 267.25 381.55 270.6 381.4 271.45 381.4 272.3
L 380.9 272.45
Q 380.15 272.7 379.5 273.1 377.35 274.8 377.5 277.55 375.3 278.95 374.45 280.95 372.85 284.7 374.6 288.35 372 289.6 371.25 291.7 370.45 293.9 371.35 297.1
L 371.4 297.3 371.25 297.45
Q 368.95 299.4 368.3 300.65
L 368.1 301.05
Q 367.45 302.65 367.4 304.8
L 367.3 306 365.25 309.45
Q 363.25 312.65 362.75 313.25
L 362.5 313.6
Q 362.5 313.8 360.85 315.2
L 360.5 315.55
Q 358 318.3 358.6 321.4
L 358.25 321.75
Q 355.6 324.45 355.1 328.25 354.95 328.85 355.05 329.6 355.05 329.65 355.05 329.75 353.5 330.9 352.85 332.35 352.3 333.6 352.35 336
L 351.75 336.6
Q 351.3 337.05 350.9 337.7
L 350.55 338.3
Q 350.15 338.95 350.05 339.5 349.7 340.2 349.7 341.1
L 349.7 341.35
Q 349.5 342.3 349.7 343.25
L 349.7 343.55
Q 349.7 344.55 350.1 345.3
L 350.45 346.2 350.95 346.95
Q 351.15 347.35 351.55 347.75
L 351.75 349.8
Q 351.8 350.6 352.25 351.55
L 351.9 352.15
Q 351.6 352.95 351.55 353.35 351.1 355.7 352.65 357.5 353.1 358 353.75 358.5 353.2 361.6 354.1 364.2
L 354.5 365
Q 355.5 366.55 357.2 367.15 357.15 368.6 356.15 370.15 353.4 373.2 352.05 375.15 351.8 375.5 351.75 375.7 350.1 378 349.95 380.2 348.1 381.9 346.75 385.05
L 346.7 385.2
Q 346.1 386.8 345.6 389.15 344.65 393.6 343.95 400.7 343.8 401.85 344.35 403.65
L 344.9 405.05
Q 344.75 406.25 344.3 407.85
L 344.2 408.3
Q 343.75 410.45 344.75 421.45 344.75 421.9 345 422.5 345.05 425.65 347.05 427.85 347.7 428.55 349.75 430.35 351.25 432.25 352.3 433.9 353.3 435.7 354.1 437.85 355.1 440.65 356.7 442.95 358.3 445.45 364.5 450.6 368.15 453.75 368.55 455.75 369.15 458.75 369.7 459.85
L 370.6 461.55 371.5 464.95
Q 372.45 469 375.6 474.15
L 376.5 475.9 375.5 478.1
Q 375.15 478.85 375.15 479.8 375.15 481.45 376.2 483.15
L 375.95 485.4
Q 375.5 488.25 376.45 490.8 377.4 493.9 380.25 495.05
L 380.7 495.2 385.85 502.45 386.2 503.35
Q 386.85 505.65 388.05 506.9
L 388.1 507
Q 389.95 508.9 394.35 510.45
L 397.1 511.4
Q 397.95 513.3 399.55 514.15 400.25 514.55 401.15 514.65
L 401.85 514.75
Q 402.3 516.05 403.45 516.8 404.45 517.55 405.75 517.55
L 406.55 517.45 406.7 517.45 406.8 517.5 409.05 519.1
Q 410.55 519.85 414.6 522.05 418.55 524.2 420.1 524.95
L 420.2 525.05
Q 421.25 525.5 423.05 525.65
L 423.4 526.65
Q 424.25 529.35 424.55 530.15 424.9 531.05 425.45 531.6
L 426 532.2 426.15 532.3
Q 427.4 533.2 429.8 533.7 430.75 534.35 432.55 536.25 433.15 536.85 433.7 537.1
L 436.1 538.45
Q 441.4 541.8 443.7 542.85 445.25 543.6 446.45 543.6 447.35 543.6 448 543.3
L 448.8 542.9
Q 449.4 542.4 449.5 542.3 451.45 543.2 453.25 543.2
L 454.8 543.05 457.15 544.2 457.2 544.25 457.6 544.5 460.45 545.95
Q 461.45 546.4 461.85 546.5
L 463 546.9 463.15 546.9
Q 465.7 547.55 468.25 547.85
L 468.4 547.9 468.6 547.9 472.95 548.6
Q 474.3 550.8 476.7 550.8 478.3 550.8 480.45 549.6
L 480.85 549.4 481.75 549.75 481.95 549.85
Q 484.3 550.75 485.75 550.75 487.3 550.75 489 549.7 489.55 549.8 490.65 550.2
L 494.1 551.3
Q 494.7 551.45 495.35 551.45
L 495.4 551.45
Q 496.4 551.55 497.25 551.55
L 502.35 551.4 502.8 551.95 502.85 552.05
Q 504.95 554.8 507.95 555.15 508.5 555.3 508.95 555.3
L 510.4 555.45
Q 519.2 556.9 519.55 556.9
L 519.75 556.95 521.5 556.8
Q 522.45 557.55 523.95 558.05
L 524.25 558.15
Q 525.15 558.35 525.6 558.35
L 529.25 558.55 530.2 558.45 534.8 557.3 535.05 557.3
Q 535.9 557.75 536.9 557.75
L 542.35 557.75
Q 544.55 557.75 545.8 555.85
L 546.6 555.7 547.15 555.85 548.05 555.95
Q 549.4 555.95 550.45 555.2
L 550.65 555.05 550.8 555.05
Q 553.4 555.05 554.8 553.65 555.8 552.65 556 551.1
L 557.45 550.55
Q 561.9 549.1 562.45 548.7 563.35 548.05 567.75 544
L 573 539.15
Q 573.8 538.35 574.8 536.2
L 575.15 536.15
Q 578.1 535.9 579.3 535.15 580.05 534.75 580.6 534.05 581 533.55 581.65 532.35 581.7 532.3 582.1 531.85 583 530.85 585.75 528.25 589.3 528.95 590 528.95
L 591.05 528.8 591.55 528.65 593.05 528.45
Q 595.7 528.25 597.8 527 598.2 526.8 598.6 526.4
L 600.75 524.2
Q 601.55 524.6 602.5 524.6 603.7 524.6 604.6 524.05 607.05 522.65 609 521.9 610.7 521.2 611.3 519.5
L 620.15 509
Q 620.55 508.6 620.8 507.95 625.15 497.5 626.35 495.1
L 631.65 492
Q 632.2 491.75 632.45 491.4
L 632.7 491.15
Q 633.6 491.35 633.95 491.35 635.15 491.35 636.15 490.7 637.15 490.05 637.65 488.95 638.65 486.85 638.5 484.45 639.45 483.8 640.5 482.6
L 640.75 482.2
Q 641.2 481.5 642.6 479.6 644.85 477.75 649.15 475.1 654.9 471.45 656.7 470.1 664.35 464.4 666.6 450.15 667.45 443.7 668.05 440.3
L 668.1 440.15
Q 668.65 436.5 669.55 433.8 671 432.9 671.55 431.35 672.1 430 672.4 426.9
L 672.55 425.75
Q 674.7 424.5 675.1 422.45
L 675.15 421.65
Q 675.05 407.15 674.9 406.45 674.8 405.05 673 399.6 672 396.6 671.8 394.75
L 672.6 393.2
Q 673.4 391.75 673.1 390.3
L 671.15 380.9
Q 670.75 379.1 669.15 378.2
L 667.95 375.75 668.05 373.6 670.15 361.85 670.2 360.65
Q 670.2 359.7 669.95 358.1 669.85 357.4 669.9 357.1
L 669.95 356.85 670.35 356.2 670.55 355.95 670.7 355.7 671.15 355.1
Q 671.75 354.1 671.95 353.55
L 672.05 353.1
Q 672.25 352.35 672.15 350.4
L 671.85 347.05 671.85 346.65
Q 671.5 343.7 671.5 342.45 673.65 340.4 672.9 337.15 672.4 335.15 670.55 334.35 671.5 332.1 671.4 330.6 671.25 327.5 667.6 325
L 665.8 323.75
Q 665.35 322.75 664.7 320.85
L 664.05 318.6
Q 664.45 317.25 663.85 316 659.35 305.35 657.65 302.6 656.35 300.3 656.3 300.2
L 656.3 299.3
Q 656.3 296.55 655.15 295.05 654.5 294.1 653.4 293.6 653.15 292.15 652.7 291.3
L 652.5 290.95
M 648.45 317.75
L 648.5 317.8 651 322.9
Q 653.4 327.75 653.6 328.05 654 328.75 656 330.8 657.75 332.5 658 333.5 658.25 334.35 657.65 335.2 656.95 336.3 656.95 336.7 656.75 338.65 656.9 349.8 657 358.7 656.05 361.85 655.75 363.2 653.25 366.65
L 653.2 366.75 653.15 366.9 653.05 367.05 652.95 369.55
Q 653.55 370.6 654.9 371.1
L 654.9 372.45
Q 654.1 372.75 653.55 373.35
L 653.05 379.6 653.15 380.05
Q 654.55 386.25 658.3 385.5 656 388.4 657.9 392.7 660.25 398 659.65 400.45 659.6 400.75 658.95 401 658.3 401.25 658.3 401.45
L 658.15 403.3
Q 658.35 404.45 658.65 405.35
L 659.5 407.5 659.5 407.6 659.45 407.65 658.85 408.5
Q 658.55 408.95 658.35 409.5
L 658.3 409.75 658.3 409.8
Q 658.2 410.6 658.35 413.2 658.35 415.4 658 416.5 657.65 417.5 656.65 418.15 655.55 418.85 655.5 419.1
L 654.4 424.25
Q 653.8 427.8 653.35 429.35 653.25 429.6 652.05 431.05 651.1 432.3 651.05 433.3 651.05 433.8 651.5 434.45
L 651.85 435.05
Q 651.85 435.35 650.8 436.4 649.85 437.35 650.1 438.45 650.25 438.85 651.15 439.8 651.85 440.45 652 440.95
L 652.05 441.4
Q 652.05 441.75 650.6 446.05
L 650.5 446.25 650 449.3
Q 650.1 450.7 650.7 451.6 648 451.6 645.9 454.2 642.7 458.2 642.15 458.65 641.5 456.65 640.25 456.65
L 640.2 456.65 639.45 456.85 638.4 457 637.7 456.95
Q 636.75 456.65 633.8 454.85 631.2 453.25 629.5 453.7 630.55 452.3 629.85 450.2
L 628.95 446.95 629.95 443.95 630 443.85
Q 630.7 441.75 629.35 439.45 626.5 436.15 626.3 436.05 624.8 435.75 623.25 437.55 621.4 439.65 620.6 440 618.35 440.3 615.7 441.4
L 615.5 441.45 609.6 443.95 606.15 444.55 606.15 448.1 602.9 445.9
Q 602.6 445.4 605.45 436.8 608.3 428.25 607.3 426.25 606.85 425.6 604.75 424.75 602.75 424.05 601.75 424.2
L 601.65 424.2
Q 601.5 424.35 601.35 424.9 601.25 425.55 601.1 425.55
L 601 425.6
Q 600.7 425.6 599.65 425.25 598.55 424.8 597.75 424.9
L 597.7 424.9
Q 596.05 425.05 592.7 426.65
L 591.45 427.1 588.3 427.75 587.65 427.7 587.65 431.25
Q 584.8 431 583.8 431.15 581.8 431.3 581.2 433.3 577.9 431.65 578.1 427.75
L 578.1 427.6 578.15 427.4 578.15 427.3 578.2 427.15 578.8 422.5 578.7 420.35
Q 578.65 419.7 578.25 418.35
L 577.2 414.9
Q 575.8 410.65 575.05 410.05
L 568.25 408.8 563.35 414.1
Q 562.35 413.1 559 413.3 555.85 413.55 555.45 412.55
L 555.4 412.5 555.4 412.2
Q 555.5 411.7 556.25 411.35 556.75 411.1 557.25 410.7
L 557.85 410.1
Q 558.35 409 559 406.5
L 559.95 403.05 560.9 400.95 561.1 397.85
Q 561.1 397.75 561.7 397.05 562.1 396.6 561.95 396.1 561.65 394.5 558.9 392.95 561.65 391.6 561.1 388.6
L 561.05 388.45 561.05 388.4 561 388.3 561 388.25 560.95 388.15 560.95 388.1 560.9 388 560.9 387.95 560.85 387.85 560.45 386.5
Q 560.2 385.8 560.2 385.55
L 560.25 385.55
Q 561.55 385.4 561.9 384.75 563 383.2 563.55 381.35 564.1 379.1 563.65 377.55 563.65 377.25 562.7 376.75 561.8 376.45 561.7 376 561.6 375.75 562 374 562.45 372.3 562.3 371.1 562.05 369.8 560.4 364.85 559.1 361.05 559.15 358.4 559.15 357.9 559.7 357.05
L 560.2 356.3
Q 560.2 355.75 559.35 355.45
L 557.05 355.2 555.45 355.25
Q 555.85 354.1 555.9 354 556.35 352.65 555.45 352.05
L 550.55 351.5 548.9 346.1 546.55 346.15
Q 547.3 343.45 544.7 342.7 541.4 342.3 540.5 341.8 540.35 341.65 540.05 340.8 539.75 340.1 539.35 339.75
L 539.15 339.6 528.55 335.75 514.45 332.95
Q 510.5 332 507.95 332.9 504.5 333.95 504.7 337.75 504.05 337.75 503.8 336.7 503.55 335.2 503.05 334.85 501.85 333.8 498.15 333.65 494.65 333.65 493.05 334.55 492.5 334.8 492.1 335.8
L 491.6 336.85 489.1 336.8
Q 486.7 336.75 486.2 337 486.8 340.05 485.75 340.05
L 485.65 339.95
Q 484.25 339.4 483.8 339.4
L 483.75 339.4
Q 483.5 339.4 482.8 339.75 482.15 340.15 481.65 340.25
L 480.45 340.1
Q 479.75 339.9 479.3 340.1 477.9 341 477.9 344.7
L 473.15 344.75 472.85 347.5 470.55 346.1 470.55 345.85 470.95 343 473.3 333.9
Q 473.5 333.3 473.65 331.15 473.8 329.4 474.25 328.55 474.6 328 475.45 327.2 476.65 326.2 476.9 325.7 478.8 322.8 477.35 322.05 475.25 321.5 474.85 320.85 474.5 318.4 474.1 316.8 473.5 313.75 470.75 313.1 468 312.5 467.5 313.9 467.3 314.6 466.35 317 465.8 317.75 464.55 318.1 463.3 318.65 463.05 318.85
L 462.85 319.1
Q 462.7 319.35 462.45 320.35
L 462.1 321.4 462.1 321.45
Q 460.75 322.35 459.6 321.2 458.65 320.15 458.7 318.5 458.7 318.3 460 317.55 461.4 316.6 461.75 315.65 463 309.65 462.9 309.25 462.85 308.25 459.85 302.9 457.25 298.1 456.05 296.55 455.15 295.5 453.45 294.9 452.55 294.55 451.6 295.5 450.45 296.7 450.05 296.75 449.4 296.9 447.45 296.9 445.75 296.8 445.05 297.25 444.6 297.6 443.75 299.1 442.75 300.95 442.25 301.45
L 442.2 301.5 439.4 303.35 438.15 303.95
Q 437.4 304.3 437 304.4
L 434.25 305.05 434 305 433.7 305
Q 432.4 304.85 432.4 304
L 432.8 302.9 432.85 302.7 432.95 302.6
Q 435.1 300.4 435.5 299.4 436.4 297.7 437.7 293.5
L 439.55 287.45
Q 440.05 286.25 440.7 284.3
L 441.4 281.95 441.45 281.85 441.45 281.7 441.5 281.6
Q 442.05 278.25 439.2 276.6
L 439.1 276.6 431.55 274.6 431.4 274.6 429.5 275.35 427.85 276.45
Q 427.05 277.05 426.35 277.35
L 424.25 278 423.8 277.95
Q 424.35 277 424.8 275
L 424.8 274.85 425.55 272.3 427.75 269.45 427.8 269.4 428 269.25
Q 430 266.65 430.05 266.3 430.35 264.3 428.7 261.5 427.1 258.8 425.2 257.9 426.05 256.6 429.25 256.75 432.75 257.05 433.45 256.5
L 434.2 253.35 434.25 253.35 436.05 253.25
Q 435.8 251.25 436.65 250.1
L 439.3 248.35 439.45 248.35 439.7 248.3
Q 441.8 247.9 447.25 247.5 448.05 247.4 451.35 246.1 453.9 245.05 455.7 244.9 459 244.5 468 244.8 476 245.05 480.35 244.2 481.75 243.9 482.25 242.75 482.9 241.5 483.45 241.35 484.2 244.4 487.9 243.45 490.15 242.8 493.45 241.45
L 493.55 241.4 495.85 241.2 499.2 241.45
Q 500.5 241.2 501 240.25
L 501.3 237.55 501.3 237.45 501.25 237.35
Q 501.35 237.25 501.25 237.15
L 505.05 239.85 505.05 239.8
Q 505.55 239.3 506.15 238.9
L 507.65 237.9 507.75 237.8
Q 509.7 236.65 510.55 236.7 510.9 236.7 511.75 237.25 512.55 237.75 513.2 237.75
L 513.25 237.75
Q 514.2 237.8 515.95 236.9 517.95 236 518.75 235.8
L 518.95 235.75 519.05 235.75
Q 521.9 235.3 526.3 235.15
L 533.85 235 541.2 233.7 541.45 233.7
Q 542.35 233.7 543 234.6 543.9 235.6 544.25 235.65 544.9 235.8 546.95 235.15 549.2 234.6 550.1 234.75 555.15 235.35 558.95 238 560.75 239.35 565.75 243.8
L 570.65 247.6
Q 571.15 247.85 572.3 247.7 573.5 247.65 574.15 247.75 574.5 247.85 575.15 248.75 575.65 249.65 576.2 250.05 577.15 250.65 579.1 250.95 581 251.1 581.35 251.35
L 582.75 252.75
Q 583.3 253.25 586.5 254.05
L 587.95 255.45
Q 589.6 256.95 591.05 257.25 592.8 257.55 597.55 257.55
L 598.55 257.55
Q 603.4 257.55 605.95 258.85 608.55 259.95 611.1 262.45
L 615.45 266.65
Q 617.85 268.6 621.15 270.7 623.75 272.75 625.55 276.75 626.05 278.05 627 281.45 628 284.65 628.9 285.9 629.45 286.8 630.95 287.75 632.3 288.65 632.6 289.2
L 632.6 289.25 632.7 289.55
Q 632.8 289.95 632.9 291 632.95 291.8 633.15 292.35
L 633.3 292.7 634.6 294.15 639.35 297.55 639.4 297.65
Q 640.15 298.55 641.35 302.3
L 642.2 305 642.65 305.95
Q 642.85 306.15 644 306 644.95 306 645.4 306.5 646.7 308.2 647.4 312.05
L 648.45 317.75
M 377.9 324
Q 378.15 325.7 378.3 326.4 379 329.2 378.9 330.3 378.8 331.2 377.95 332.8 377.6 334.3 379.7 335.45 380.95 335.95 381.5 334.9 382.15 333.6 382.65 333.5
L 382.65 333.7 382.7 333.9 382.7 334.05 382.75 334.15
Q 383.3 337.05 384.85 336.95
L 384.9 336.95
Q 385.9 336.95 388.5 335.95 388.65 335.9 389.95 336.15 391 336.3 391.75 336.15 392.6 335.95 396.4 333.35 399.3 331.35 401.85 332.1
L 400.5 327.85
Q 405.5 330.1 404.85 332.65 404.45 334.25 402.55 338.05 402.5 338.9 402.55 340.55 402.8 342.15 402.55 342.85 402.45 343.25 401.75 343.55
L 400.85 344
Q 400.65 344.4 400.9 345.25 401.3 346.15 401.2 346.45 401.1 347.2 400.1 349.65 399.75 351.55 402.35 352.35
L 403.4 352.5 403.8 352.45
Q 404.5 352.35 404.95 352.05
L 406.9 351.15 406.95 351.15
Q 407.25 351.15 408.2 351.45 409.05 351.7 409.55 351.55 410.8 351.3 415 350.05 418.25 349.05 420.35 349
L 420.35 345.4 425.85 346.15 425.85 344
Q 430.05 344.3 429.9 346.75 429.8 348.35 428.65 352.25 428.45 355.15 429.7 360.3 431.15 366.2 433.2 367.1 434.2 367.5 436.45 367.8 438.95 368.1 439.75 367.85 440.8 367.45 441.85 365.25 442.75 363.2 444.1 363.2
L 444.85 363.3 445.65 363.75
Q 446.25 364.1 446.55 364.15
L 446.85 364.3 446.9 364.3
Q 447.6 364.3 448.35 364.05
L 449.6 363.8
Q 450.05 363.8 451.1 364.1
L 452.1 364.35 452.2 364.35
Q 452.65 364.25 452.85 363.7
L 453.1 363.2
Q 453.4 362.2 454 362.35
L 455 363.75 455 363.7
Q 455.9 362.8 456.25 362.35
L 458 360.55 458.1 360.5
Q 460.6 358 461.5 358.75 459.75 360.35 459.55 362.55 459.45 363.55 459.35 366.7 459.15 367.5 458.35 369.1 457.2 370.85 457 371.4 456.8 371.85 456.8 373.4 456.7 374.75 456.6 374.85 456.5 374.95 455.4 375.1 454.35 375.3 454.05 376.1 453.45 377.9 454.95 379.8 456.55 381.9 456.55 382.3 453.2 385 454.25 387 454.8 387.9 456.05 388.75
L 456 389
Q 455.9 389.65 455.45 390.55
L 454.7 392.75 454.7 392.9
Q 454.7 394.5 455.9 398.25 457.2 402.2 457.45 403.5 457.45 404.3 457 406.1 456.55 407.8 456.75 408.75
L 460.85 409.85 461.2 414.35
Q 463.8 415.05 464.75 418.2
L 464.8 418.3 465.95 421.5
Q 466.6 422.7 466.95 423 467.45 423.5 468.2 423.65
L 468.75 423.7
Q 469.55 424.1 469.1 427
L 473.85 426.25 473.85 426.4 473.9 426.65 473.9 426.7 475.25 429.9
Q 476 430.85 476.75 431.5 477.35 432.05 478.2 432.45
L 481.65 434.2 481.85 434.25 482.05 434.35
Q 483.55 435 485.35 435.15 486.45 435.6 486.5 439
L 486.6 439.1
Q 487.15 439.7 488.1 439.7
L 488.7 439.65 492.7 438.85 499.5 439.65
Q 502.55 440.05 506.85 441.1 510.3 441.75 515 440.8 516.2 440.45 519.7 439.1 522.8 437.9 523.85 437.9 524.25 437.9 525.65 438.5 526.95 439.1 528.3 438.95 529.35 438.8 532.55 436.25 535.35 434 537.6 434.75 537.65 435.55 537.15 436.35 536.5 437.2 536.3 437.95 536.15 438.45 536.3 439.65
L 536.3 441.35
Q 536.2 441.7 535.35 442
L 535.3 442 534.75 442.35
Q 534.4 442.65 534.25 442.9
L 534.1 449.4
Q 534.05 449.55 532.5 450.55 531 451.9 530.7 453.4 530.6 454.4 530.9 455.65 531.3 457.1 531.3 457.55
L 531 462.3
Q 530.8 465.05 531.1 467.1
L 533.15 467.8
Q 533.2 467.3 533.5 466.9
L 533.65 466.75
Q 534.1 466.35 534.9 466.6
L 536 466.9
Q 537.35 467.2 537.9 467
L 538 466.95
Q 539 466.5 540.05 464.45 541.1 462.1 541.45 461.5 541.85 460.85 542.75 460.3
L 542.8 460.25 543.45 459.8
Q 544 459.4 544.1 459.3
L 545.1 457.6 545.5 457.05 545.55 457
Q 546.3 456.1 549.25 455.8 549.55 456.8 549.25 457.7
L 548.6 458.85 548.55 458.9 548.5 459 547.15 460.55
Q 546.65 461.15 546.65 461.25 546.45 461.8 546.25 463.6
L 545.9 466.9
Q 545.75 468.5 545.8 468.8 545.8 469 547.25 472.2 549 475.8 549.15 476.05 549.45 476.7 550.25 477.2
L 550.3 477.2 550.65 477.45
Q 551 477.65 551.1 477.85 551.25 478.15 551.3 478.7
L 551.4 479.2 551.4 479.3
Q 551.55 480.35 552.4 481.05
L 553.3 481.6 554.6 482.2 555.75 482.5 556.6 482.55
Q 556.85 482.6 557.05 482.55 557.35 482.55 557.55 481.8 557.95 481.05 558.3 480.9 559.3 480.65 560.75 480.5 562.35 480.4 563 480.1 563.65 479.75 564.55 478.1 565.7 475.95 565.95 475.7 567.95 473.7 571.4 472.5 575.5 471 577.4 472.75 577.05 474.05 575.3 476.25 573.35 478.5 572.95 479.75 572.55 480.8 571.3 485.65
L 571.25 485.8 569.75 489.45 568.4 491.9 567.4 492.5
Q 566.8 492.9 567.15 494.05
L 575.15 500.75
Q 579.3 500.5 580.7 500.1 583.8 499.4 585.3 497.3 585.9 498.2 585.15 499.75
L 583.85 502.25
Q 583.65 502.7 583.85 503.3
L 584.1 504.15 584.15 504.25
Q 584.1 504.45 583 504.9 581.8 505.6 581.35 506.7 581.05 507.3 581.2 508.25
L 581.35 509.15
Q 581.2 509.4 577.25 512.15 574.75 514.05 577.4 515.25
L 577.25 515.85
Q 576.95 516.65 576.4 517.3 576.15 517.6 575.75 517.85
L 575.55 518 573.2 519.4 572.9 519.85 572.3 519.85
Q 569.8 520 568.75 520.45 568.4 520.6 566.95 522.4
L 565.65 524.15
Q 565.45 524.3 565.1 524.3 564.7 524.45 564.05 524.35 563 524.3 562.75 524.4 562.45 524.7 562.25 526.2
L 562.2 526.35 562.15 526.85
Q 562 527.6 561.85 527.8
L 561.9 527.85 561.7 528.1 561.2 528.3 561.3 528.25 560.1 528.55
Q 558.85 528.9 558.4 529.85 558.3 530.05 558.35 530.3
L 558.45 530.8
Q 558.7 531.5 558.6 531.7 558.45 532.4 555.9 533.3 552.65 534.4 552.25 534.7 551.7 535.1 551.2 535.95 550.75 536.7 550.35 536.85 549 537.35 546.4 537.6 545.9 537.6 542.25 540.7
L 541.9 540.6
Q 541.2 540.15 540.85 540.05
L 540.75 539.95 539.65 539.45 538.5 540.05 538.2 539.7
Q 537.4 538.8 536.65 538.8
L 536.6 538.8
Q 536.2 538.85 534.1 539.95 533.15 540.45 532.6 540.65
L 532.35 540.25
Q 531.85 539.25 531.75 539.25 531.35 539.25 530.4 539.8 530.05 538.95 529.55 538.8 528.65 538.55 526.5 538.55
L 523.8 538.55 523.25 538.5
Q 515.65 536.8 511.25 536.05 504.45 534.85 498.85 535.3 497.7 535.4 495.1 536.15 492.8 536.9 491.35 536.75 490.6 536.65 490.4 536.1 490.05 535.4 489.8 535.3 487.9 534.75 482.7 534.35 477.85 534 475.05 533.15 472.4 532.25 465.8 530.9 459 529.6 456.05 528.6 453.7 527.9 450.3 526.35 446.5 524.5 442.5 521.7 431.35 513.9 430.4 513.4 429.1 512.6 413.45 505.7
L 400 499
Q 399.1 498.35 398.65 497.85 398.45 497.55 397.95 496.2 397.7 495.3 397.45 494.8
L 397.1 494.2 397.1 494.15 395.4 492.5
Q 394.9 492.1 393.95 491.55
L 392.35 490.6 391.75 490.15
Q 391.55 489.9 391.25 487.95
L 390.7 485.2
Q 390.55 484.7 389.85 483.95 389.15 483.25 389 482.7 388.25 480.5 388.65 475.85
L 388.8 472.6 388.45 468.65
Q 388.15 467.75 387.4 466.2
L 386.2 463.7 386.05 463.3 386 463.2 385.9 462.85 385.8 462.65 385.75 462.45 377.3 448.4 373.75 443.5 366 429.7 365.85 429.1
Q 365.65 426.1 365.4 425.5 365.15 424.75 361.55 424.05 361.65 422.7 360.75 420.8 359.7 418.4 359.7 417.9 359.55 416.95 361.05 414.7 362.45 412.55 362.15 411.2 359 410.3 359.55 409.35 360.7 408.45 360.75 408.25 361.2 406.45 360 404.8 358.6 403.1 358.6 402.7 360.2 402.35 360.05 401.25 359.75 400.45 359.65 399.55
L 359.7 399.2
Q 361.45 390.1 363.2 384.75 363.25 384.45 365.3 381.5
L 367.4 378.55
Q 367.5 377.55 367.15 376.15 366.9 374.75 367.2 374.25 369.1 373.05 371.15 371.4 374 368.75 371.05 366.95
L 371.55 365.45
Q 371.7 364.6 371.5 363.7
L 371 360.25 368.35 360.15
Q 368.75 358.7 367.5 357.45 366.2 356.3 366.2 356.25 366.1 355.7 366.6 354.35 367.05 353.05 366.8 352.25 366.7 351.85 364.45 350.3 363 349.3 364.85 347.85
L 363.45 346.45 364.85 343 362.8 341.9 362.75 340.9
Q 363.8 340.45 364.45 339.8 364.55 339.75 364.65 339.55
L 365.25 338.65 365.65 337.6
Q 366.05 334.8 366.6 333.5 367 332.75 368.9 330.15 370.65 327.95 371.35 326.5 372.4 323.8 372.35 321.5
L 377.8 322.3 377.9 324
M 475.95 353.15
Q 475.9 352.25 476.1 352.1
L 480.35 350.15
Q 484.55 348.35 485.55 347.35 486.05 346.85 486.35 346.1 486.6 345.25 487 344.65 487.5 344.15 488.25 343.85 489.35 343.4 490.65 343.1
L 491.05 343
Q 493.75 342.4 493.8 340.8
L 494.05 340.7
Q 494.45 340.8 494.6 341.35 494.85 342.2 495.05 342.4
L 495.2 342.55
Q 496.9 343.8 497.4 341.55 498 339.4 498.7 339.4
L 498.85 339.45
Q 499.15 339.55 499.8 340.05
L 501.8 341.4
Q 503.65 342.85 505.05 342.95
L 505.2 342.95
Q 506.45 342.95 508.1 342.45
L 509.35 342.1
Q 512.7 340.95 513.45 340.85 523.4 339.25 525.05 339.4
L 525.25 339.45 525.6 340.25
Q 525.9 341.05 526.45 341.35 526.75 341.55 531.55 343.25 535.4 344.6 536 345.65 536.3 346.15 536 348 535.85 349.4 536.15 350.15
L 536.45 350.55
Q 537.95 350.2 539.35 350.55 540.35 350.8 541.65 351.75
L 543.3 353.25
Q 544.75 354.6 545.7 355.6 546.4 356.1 547.95 356.25 548.1 356.4 547.6 357.75 547.15 359.25 547.25 359.95
L 548.4 361.75
Q 549.55 363.6 549.95 365.1 550.55 367.3 550.75 371.6 550.9 373.5 551.15 375.2 551.25 376.1 551.5 377.4
L 551.5 377.45 551.55 377.55
Q 551.7 378 552.5 378.8 553.25 379.55 553.4 380.35
L 553.45 380.5 553.5 381 553.55 381.15 554 385.7
Q 554.1 388.4 554 391.75 553.85 399.65 552.8 403 552.05 405.95 549.35 409.45 546.7 413.15 546.4 414
L 544.4 419.95
Q 542.9 423.65 541.15 425.55
L 536.15 429.55 536.15 429.6 536.05 429.6 536 429.65
Q 534.8 430.15 531.85 430.4
L 531.8 430.4
Q 528.1 430.7 527.25 430.95
L 519.3 433.45
Q 514.45 434.95 510.65 435
L 510.35 435 493.45 431.5
Q 490.15 430.45 485.55 427.6
L 480.6 424.25
Q 479.45 423.3 478.45 422.3 472.65 416.25 467.9 407.85
L 466.7 405.65 462.3 392.15 462.25 391.1
Q 462.1 389.25 462.85 386.9 463.45 384.75 463.55 383.9
L 464.45 374.6
Q 465 371.75 466.55 365.95 466.65 365.45 467.45 363.9 468.1 362.45 468.4 362.15
L 468.45 362.15 470.45 362.55 469.85 357.7
Q 474.7 356.6 475.85 354.3 475.95 354 475.95 353.15
M 505.7 382.45
Q 504.55 382.65 504.6 385.3 504.7 387.6 505.45 388.05 505.95 388.4 507.05 388.75 507.55 389.2 508.25 390.35 508.6 390.7 509.1 390.7 509.85 390.95 511.15 390.55 512.8 390.1 512.8 387.35 512.8 384.7 515.1 383.95
L 512.65 381
Q 511.85 380.15 511 380 510.15 379.8 509.1 380.15 508.65 380.4 508.25 381.15 507.95 381.95 507.75 382 507.25 382.45 505.7 382.45
M 491.4 284
Q 490.85 284.1 490.5 284.35 490.1 284.6 489.95 285.1 489.8 285.55 489.95 286.1
L 490.85 288.95
Q 490.65 288.95 490.55 289.05 489.9 289.2 489.6 289.75 489.3 290.35 489.5 291 489.75 292 489.25 292.9
L 489.2 292.95
Q 488.1 295.05 489.7 297.05
L 489.65 297.15 489.75 297.45
Q 489.5 297.55 489.45 297.65 488.8 297.85 488.65 298.55 488.4 299.1 488.75 299.75
L 491.75 305.8
Q 492.05 306.35 492.65 306.6 493.15 306.75 493.65 306.6 494.05 307.45 494.75 308.15
L 495.4 308.75
Q 495.95 309.2 496.6 309.15 496.95 309.55 497.6 309.8 498.25 309.95 498.75 309.6
L 499.65 309.15 499.6 309.3
Q 499.6 310 500 310.4 500.35 310.9 501.1 311
L 504.65 311.3
Q 505.35 311.4 505.75 310.95 506.25 310.55 506.35 309.9 506.4 309.65 506.3 309.25 506.55 308.95 506.6 308.7
L 506.65 308.4 512 307.65
Q 513.55 307.4 514.3 306.5
L 514.45 306.4 514.9 305.85
Q 515.2 305.4 515.2 305 515.3 304.5 515 304.1
L 514.35 302.95 514.65 302.5 515.45 302.8 516.15 302.85
Q 516.55 302.75 516.85 302.55
L 521.6 299.1 521.95 298.7
Q 522.35 298 522.35 297.65
L 523 294.85 522.95 294.85
Q 523.1 294.25 523.8 294.4 524.15 294.45 524.75 294.25 525.3 293.9 525.45 293.55 525.65 293.05 525.6 292.6
L 525.5 291.8 526.05 291.85
Q 526.5 291.85 527 291.45
L 527.6 290.9 527.95 290.45
Q 528.4 290.45 528.8 290.25 529.35 289.85 529.5 289.25 529.65 288.6 529.35 288 527.75 285.55 528.2 282.6 528.35 282 527.95 281.45 527.5 280.9 526.9 280.8 526.3 280.65 525.7 281.05 525.1 281.5 525.1 282.1
L 525 282.65 524.75 282.7
Q 523.95 282.2 523.2 282.6 522.65 282.8 522.35 283.35
L 521.75 284.55
Q 519.65 284.85 518.9 286.8 518.25 288.25 517.35 289.5 515 292.55 512.4 295.15 510.1 297.6 506.6 300.9 506.1 300.55 505.45 300.7
L 504.35 301 504 301.15
Q 503.9 301.2 503.35 301.6
L 503.25 301.3
Q 502.95 300.7 502.3 300.45 501.75 300.2 501.15 300.5 500.45 300.8 499.9 300.35
L 499.9 300.3
Q 498.9 299.45 497.7 299.15
L 497.7 299.1
Q 497.85 296.25 496.5 293.65 496.85 293.5 497.2 293.15 497.6 292.55 497.55 292
L 497.3 289.4 497.2 288.95
Q 497.55 288.45 497.55 287.9
L 497.5 286.2
Q 497.4 285.15 496.65 284.3 496.25 284 496.05 283.95
L 495.35 283.8 491.4 284
M 574.55 293.6
L 574 293.55
Q 573.65 293.4 573.15 293.65 572.7 293.85 572.55 294.2 572.25 294.55 572.2 295.05
L 572.2 295.65 570.7 295.95
Q 570.2 295.95 569.8 296.35
L 569.25 296.9 565.8 299.7
Q 565.35 300.05 565.2 300.75
L 565.1 301.6 563.45 302.65 563.35 302.7
Q 562.45 303.4 561.9 304.3
L 561.9 304.35 561.45 305.2
Q 560.4 304.95 559.05 304.85 558.55 304.85 558.2 305.05 557.65 304.75 557.05 304.9
L 556.7 305
Q 556.7 304.7 556.55 304.3 556.3 303.8 555.6 303.55
L 554.05 303 554.1 303.05
Q 551.95 302.1 551.95 299.8
L 551.95 298.5 551.9 298.1
Q 551.7 297.6 551.45 297.35
L 551.35 297.25 551.95 296.6
Q 553.8 294.55 552.65 292.1
L 552.65 292.05 552.1 291.2
Q 551.75 290.85 551.5 290.75 551.25 290.55 550.8 290.55
L 545.85 290.55
Q 545.3 290.55 544.7 291.05 544.25 291.5 544.25 292.15
L 544.3 292.55
Q 544.15 292.65 543.85 293.15
L 542 298.5
Q 541.75 298.95 542 299.5 541.7 299.65 541.55 300 541.2 300.6 541.4 301.2 541.5 301.6 541.95 302.05
L 541.9 302.1
Q 541.45 302.45 541.4 303 541.25 303.45 541.55 304 541.8 304.5 542.3 304.7
L 544.4 305.65 544.3 306
Q 544.15 306.7 544.5 307.25 544.9 307.7 545.35 307.85
L 545.5 307.9 545.7 308
Q 545.35 309.1 545.6 310.75 545.7 311.15 545.95 311.5 546.15 311.8 546.65 311.95
L 550.55 313.45 551.2 313.55 551.85 313.4 552.1 313.3
Q 552.45 313.1 552.7 312.75
L 558.8 315.15
Q 559.4 315.4 560 315.15 560.65 314.85 560.85 314.25 561.15 313.6 560.85 313
L 560.8 312.95 562.45 313.7
Q 562.95 313.9 563.55 313.75 564.1 313.55 564.45 312.95 564.7 312.5 564.55 311.85
L 564.45 311.35 565.9 311.65
Q 566.45 311.65 566.75 311.55 567.2 311.35 567.45 311 567.6 310.7 567.95 310.45
L 568 310.4
Q 568.55 309.9 569.3 309.5
L 569.4 309.45
Q 569.55 309.3 570 309.2
L 570.6 308.75
Q 570.85 308.6 571 308.15
L 571.8 305.5 574.1 303.45
Q 574.55 303.05 574.65 302.35 574.7 301.7 574.3 301.2
L 574.25 301.15 575 301.45
Q 575.55 301.55 575.8 301.5 576.3 301.4 576.5 301.25
L 577.6 300.35 577.65 300.25
Q 581.05 297.45 583.3 293.5 586.15 292.4 588.2 290.1
L 588.5 289.45
Q 588.6 288.95 588.55 288.7 588.45 288.2 588.25 287.85
L 588.2 287.75 587.5 286.75
Q 586.7 285.9 585.95 285.5 585.8 285 585.35 284.7 584.8 284.25 584.15 284.4 583.5 284.45 583.15 285.05 582.85 285.35 582.85 285.75
L 582.8 285.75 580.75 286.95
Q 579.15 287.9 578 289.2
L 577.95 289.25
Q 575.85 291.1 574.55 293.6 Z"/>

<path fill="#FFCC00" stroke="none" d="
M 476.1 352.1
Q 475.9 352.25 475.95 353.15 475.95 354 475.85 354.3 474.7 356.6 469.85 357.7
L 470.45 362.55 468.45 362.15 468.4 362.15
Q 468.1 362.45 467.45 363.9 466.65 365.45 466.55 365.95 465 371.75 464.45 374.6
L 463.55 383.9
Q 463.45 384.75 462.85 386.9 462.1 389.25 462.25 391.1
L 462.3 392.15 466.7 405.65 467.9 407.85
Q 472.65 416.25 478.45 422.3 479.45 423.3 480.6 424.25
L 485.55 427.6
Q 490.15 430.45 493.45 431.5
L 510.35 435 510.65 435
Q 514.45 434.95 519.3 433.45
L 527.25 430.95
Q 528.1 430.7 531.8 430.4
L 531.85 430.4
Q 534.8 430.15 536 429.65
L 536.05 429.6 536.15 429.6 536.15 429.55 541.15 425.55
Q 542.9 423.65 544.4 419.95
L 546.4 414
Q 546.7 413.15 549.35 409.45 552.05 405.95 552.8 403 553.85 399.65 554 391.75 554.1 388.4 554 385.7
L 553.55 381.15 553.5 381 553.45 380.5 553.4 380.35
Q 553.25 379.55 552.5 378.8 551.7 378 551.55 377.55
L 551.5 377.45 551.5 377.4
Q 551.25 376.1 551.15 375.2 550.9 373.5 550.75 371.6 550.55 367.3 549.95 365.1 549.55 363.6 548.4 361.75
L 547.25 359.95
Q 547.15 359.25 547.6 357.75 548.1 356.4 547.95 356.25 546.4 356.1 545.7 355.6 544.75 354.6 543.3 353.25
L 541.65 351.75
Q 540.35 350.8 539.35 350.55 537.95 350.2 536.45 350.55
L 536.15 350.15
Q 535.85 349.4 536 348 536.3 346.15 536 345.65 535.4 344.6 531.55 343.25 526.75 341.55 526.45 341.35 525.9 341.05 525.6 340.25
L 525.25 339.45 525.05 339.4
Q 523.4 339.25 513.45 340.85 512.7 340.95 509.35 342.1
L 508.1 342.45
Q 506.45 342.95 505.2 342.95
L 505.05 342.95
Q 503.65 342.85 501.8 341.4
L 499.8 340.05
Q 499.15 339.55 498.85 339.45
L 498.7 339.4
Q 498 339.4 497.4 341.55 496.9 343.8 495.2 342.55
L 495.05 342.4
Q 494.85 342.2 494.6 341.35 494.45 340.8 494.05 340.7
L 493.8 340.8
Q 493.75 342.4 491.05 343
L 490.65 343.1
Q 489.35 343.4 488.25 343.85 487.5 344.15 487 344.65 486.6 345.25 486.35 346.1 486.05 346.85 485.55 347.35 484.55 348.35 480.35 350.15
L 476.1 352.1
M 504.6 385.3
Q 504.55 382.65 505.7 382.45 507.25 382.45 507.75 382 507.95 381.95 508.25 381.15 508.65 380.4 509.1 380.15 510.15 379.8 511 380 511.85 380.15 512.65 381
L 515.1 383.95
Q 512.8 384.7 512.8 387.35 512.8 390.1 511.15 390.55 509.85 390.95 509.1 390.7 508.6 390.7 508.25 390.35 507.55 389.2 507.05 388.75 505.95 388.4 505.45 388.05 504.7 387.6 504.6 385.3 Z"/>

<path fill="#C055EE" stroke="none" d="
M 378.3 326.4
Q 378.15 325.7 377.9 324
L 377.8 322.3 372.35 321.5
Q 372.4 323.8 371.35 326.5 370.65 327.95 368.9 330.15 367 332.75 366.6 333.5 366.05 334.8 365.65 337.6
L 365.25 338.65 364.65 339.55
Q 364.55 339.75 364.45 339.8 363.8 340.45 362.75 340.9
L 362.8 341.9 364.85 343 363.45 346.45 364.85 347.85
Q 363 349.3 364.45 350.3 366.7 351.85 366.8 352.25 367.05 353.05 366.6 354.35 366.1 355.7 366.2 356.25 366.2 356.3 367.5 357.45 368.75 358.7 368.35 360.15
L 371 360.25 371.5 363.7
Q 371.7 364.6 371.55 365.45
L 371.05 366.95
Q 374 368.75 371.15 371.4 369.1 373.05 367.2 374.25 366.9 374.75 367.15 376.15 367.5 377.55 367.4 378.55
L 365.3 381.5
Q 363.25 384.45 363.2 384.75 361.45 390.1 359.7 399.2
L 359.65 399.55
Q 359.75 400.45 360.05 401.25 360.2 402.35 358.6 402.7 358.6 403.1 360 404.8 361.2 406.45 360.75 408.25 360.7 408.45 359.55 409.35 359 410.3 362.15 411.2 362.45 412.55 361.05 414.7 359.55 416.95 359.7 417.9 359.7 418.4 360.75 420.8 361.65 422.7 361.55 424.05 365.15 424.75 365.4 425.5 365.65 426.1 365.85 429.1
L 366 429.7 373.75 443.5 377.3 448.4 385.75 462.45 385.8 462.65 385.9 462.85 386 463.2 386.05 463.3 386.2 463.7 387.4 466.2
Q 388.15 467.75 388.45 468.65
L 388.8 472.6 388.65 475.85
Q 388.25 480.5 389 482.7 389.15 483.25 389.85 483.95 390.55 484.7 390.7 485.2
L 391.25 487.95
Q 391.55 489.9 391.75 490.15
L 392.35 490.6 393.95 491.55
Q 394.9 492.1 395.4 492.5
L 397.1 494.15 397.1 494.2 397.45 494.8
Q 397.7 495.3 397.95 496.2 398.45 497.55 398.65 497.85 399.1 498.35 400 499
L 413.45 505.7
Q 429.1 512.6 430.4 513.4 431.35 513.9 442.5 521.7 446.5 524.5 450.3 526.35 453.7 527.9 456.05 528.6 459 529.6 465.8 530.9 472.4 532.25 475.05 533.15 477.85 534 482.7 534.35 487.9 534.75 489.8 535.3 490.05 535.4 490.4 536.1 490.6 536.65 491.35 536.75 492.8 536.9 495.1 536.15 497.7 535.4 498.85 535.3 504.45 534.85 511.25 536.05 515.65 536.8 523.25 538.5
L 523.8 538.55 526.5 538.55
Q 528.65 538.55 529.55 538.8 530.05 538.95 530.4 539.8 531.35 539.25 531.75 539.25 531.85 539.25 532.35 540.25
L 532.6 540.65
Q 533.15 540.45 534.1 539.95 536.2 538.85 536.6 538.8
L 536.65 538.8
Q 537.4 538.8 538.2 539.7
L 538.5 540.05 539.65 539.45 540.75 539.95 540.85 540.05
Q 541.2 540.15 541.9 540.6
L 542.25 540.7
Q 545.9 537.6 546.4 537.6 549 537.35 550.35 536.85 550.75 536.7 551.2 535.95 551.7 535.1 552.25 534.7 552.65 534.4 555.9 533.3 558.45 532.4 558.6 531.7 558.7 531.5 558.45 530.8
L 558.35 530.3
Q 558.3 530.05 558.4 529.85 558.85 528.9 560.1 528.55
L 561.3 528.25 561.2 528.3 561.7 528.1 561.9 527.85 561.85 527.8
Q 562 527.6 562.15 526.85
L 562.2 526.35 562.25 526.2
Q 562.45 524.7 562.75 524.4 563 524.3 564.05 524.35 564.7 524.45 565.1 524.3 565.45 524.3 565.65 524.15
L 566.95 522.4
Q 568.4 520.6 568.75 520.45 569.8 520 572.3 519.85
L 572.9 519.85 573.2 519.4 575.55 518 575.75 517.85
Q 576.15 517.6 576.4 517.3 576.95 516.65 577.25 515.85
L 577.4 515.25
Q 574.75 514.05 577.25 512.15 581.2 509.4 581.35 509.15
L 581.2 508.25
Q 581.05 507.3 581.35 506.7 581.8 505.6 583 504.9 584.1 504.45 584.15 504.25
L 584.1 504.15 583.85 503.3
Q 583.65 502.7 583.85 502.25
L 585.15 499.75
Q 585.9 498.2 585.3 497.3 583.8 499.4 580.7 500.1 579.3 500.5 575.15 500.75
L 567.15 494.05
Q 566.8 492.9 567.4 492.5
L 568.4 491.9 569.75 489.45 571.25 485.8 571.3 485.65
Q 572.55 480.8 572.95 479.75 573.35 478.5 575.3 476.25 577.05 474.05 577.4 472.75 575.5 471 571.4 472.5 567.95 473.7 565.95 475.7 565.7 475.95 564.55 478.1 563.65 479.75 563 480.1 562.35 480.4 560.75 480.5 559.3 480.65 558.3 480.9 557.95 481.05 557.55 481.8 557.35 482.55 557.05 482.55 556.85 482.6 556.6 482.55
L 555.75 482.5 554.6 482.2 553.3 481.6 552.4 481.05
Q 551.55 480.35 551.4 479.3
L 551.4 479.2 551.3 478.7
Q 551.25 478.15 551.1 477.85 551 477.65 550.65 477.45
L 550.3 477.2 550.25 477.2
Q 549.45 476.7 549.15 476.05 549 475.8 547.25 472.2 545.8 469 545.8 468.8 545.75 468.5 545.9 466.9
L 546.25 463.6
Q 546.45 461.8 546.65 461.25 546.65 461.15 547.15 460.55
L 548.5 459 548.55 458.9 548.6 458.85 549.25 457.7
Q 549.55 456.8 549.25 455.8 546.3 456.1 545.55 457
L 545.5 457.05 545.1 457.6 544.1 459.3
Q 544 459.4 543.45 459.8
L 542.8 460.25 542.75 460.3
Q 541.85 460.85 541.45 461.5 541.1 462.1 540.05 464.45 539 466.5 538 466.95
L 537.9 467
Q 537.35 467.2 536 466.9
L 534.9 466.6
Q 534.1 466.35 533.65 466.75
L 533.5 466.9
Q 533.2 467.3 533.15 467.8
L 531.1 467.1
Q 530.8 465.05 531 462.3
L 531.3 457.55
Q 531.3 457.1 530.9 455.65 530.6 454.4 530.7 453.4 531 451.9 532.5 450.55 534.05 449.55 534.1 449.4
L 534.25 442.9
Q 534.4 442.65 534.75 442.35
L 535.3 442 535.35 442
Q 536.2 441.7 536.3 441.35
L 536.3 439.65
Q 536.15 438.45 536.3 437.95 536.5 437.2 537.15 436.35 537.65 435.55 537.6 434.75 535.35 434 532.55 436.25 529.35 438.8 528.3 438.95 526.95 439.1 525.65 438.5 524.25 437.9 523.85 437.9 522.8 437.9 519.7 439.1 516.2 440.45 515 440.8 510.3 441.75 506.85 441.1 502.55 440.05 499.5 439.65
L 492.7 438.85 488.7 439.65 488.1 439.7
Q 487.15 439.7 486.6 439.1
L 486.5 439
Q 486.45 435.6 485.35 435.15 483.55 435 482.05 434.35
L 481.85 434.25 481.65 434.2 478.2 432.45
Q 477.35 432.05 476.75 431.5 476 430.85 475.25 429.9
L 473.9 426.7 473.9 426.65 473.85 426.4 473.85 426.25 469.1 427
Q 469.55 424.1 468.75 423.7
L 468.2 423.65
Q 467.45 423.5 466.95 423 466.6 422.7 465.95 421.5
L 464.8 418.3 464.75 418.2
Q 463.8 415.05 461.2 414.35
L 460.85 409.85 456.75 408.75
Q 456.55 407.8 457 406.1 457.45 404.3 457.45 403.5 457.2 402.2 455.9 398.25 454.7 394.5 454.7 392.9
L 454.7 392.75 455.45 390.55
Q 455.9 389.65 456 389
L 456.05 388.75
Q 454.8 387.9 454.25 387 453.2 385 456.55 382.3 456.55 381.9 454.95 379.8 453.45 377.9 454.05 376.1 454.35 375.3 455.4 375.1 456.5 374.95 456.6 374.85 456.7 374.75 456.8 373.4 456.8 371.85 457 371.4 457.2 370.85 458.35 369.1 459.15 367.5 459.35 366.7 459.45 363.55 459.55 362.55 459.75 360.35 461.5 358.75 460.6 358 458.1 360.5
L 458 360.55 456.25 362.35
Q 455.9 362.8 455 363.7
L 455 363.75 454 362.35
Q 453.4 362.2 453.1 363.2
L 452.85 363.7
Q 452.65 364.25 452.2 364.35
L 452.1 364.35 451.1 364.1
Q 450.05 363.8 449.6 363.8
L 448.35 364.05
Q 447.6 364.3 446.9 364.3
L 446.85 364.3 446.55 364.15
Q 446.25 364.1 445.65 363.75
L 444.85 363.3 444.1 363.2
Q 442.75 363.2 441.85 365.25 440.8 367.45 439.75 367.85 438.95 368.1 436.45 367.8 434.2 367.5 433.2 367.1 431.15 366.2 429.7 360.3 428.45 355.15 428.65 352.25 429.8 348.35 429.9 346.75 430.05 344.3 425.85 344
L 425.85 346.15 420.35 345.4 420.35 349
Q 418.25 349.05 415 350.05 410.8 351.3 409.55 351.55 409.05 351.7 408.2 351.45 407.25 351.15 406.95 351.15
L 406.9 351.15 404.95 352.05
Q 404.5 352.35 403.8 352.45
L 403.4 352.5 402.35 352.35
Q 399.75 351.55 400.1 349.65 401.1 347.2 401.2 346.45 401.3 346.15 400.9 345.25 400.65 344.4 400.85 344
L 401.75 343.55
Q 402.45 343.25 402.55 342.85 402.8 342.15 402.55 340.55 402.5 338.9 402.55 338.05 404.45 334.25 404.85 332.65 405.5 330.1 400.5 327.85
L 401.85 332.1
Q 399.3 331.35 396.4 333.35 392.6 335.95 391.75 336.15 391 336.3 389.95 336.15 388.65 335.9 388.5 335.95 385.9 336.95 384.9 336.95
L 384.85 336.95
Q 383.3 337.05 382.75 334.15
L 382.7 334.05 382.7 333.9 382.65 333.7 382.65 333.5
Q 382.15 333.6 381.5 334.9 380.95 335.95 379.7 335.45 377.6 334.3 377.95 332.8 378.8 331.2 378.9 330.3 379 329.2 378.3 326.4
M 648.5 317.8
L 648.45 317.75 647.4 312.05
Q 646.7 308.2 645.4 306.5 644.95 306 644 306 642.85 306.15 642.65 305.95
L 642.2 305 641.35 302.3
Q 640.15 298.55 639.4 297.65
L 639.35 297.55 634.6 294.15 633.3 292.7 633.15 292.35
Q 632.95 291.8 632.9 291 632.8 289.95 632.7 289.55
L 632.6 289.25 632.6 289.2
Q 632.3 288.65 630.95 287.75 629.45 286.8 628.9 285.9 628 284.65 627 281.45 626.05 278.05 625.55 276.75 623.75 272.75 621.15 270.7 617.85 268.6 615.45 266.65
L 611.1 262.45
Q 608.55 259.95 605.95 258.85 603.4 257.55 598.55 257.55
L 597.55 257.55
Q 592.8 257.55 591.05 257.25 589.6 256.95 587.95 255.45
L 586.5 254.05
Q 583.3 253.25 582.75 252.75
L 581.35 251.35
Q 581 251.1 579.1 250.95 577.15 250.65 576.2 250.05 575.65 249.65 575.15 248.75 574.5 247.85 574.15 247.75 573.5 247.65 572.3 247.7 571.15 247.85 570.65 247.6
L 565.75 243.8
Q 560.75 239.35 558.95 238 555.15 235.35 550.1 234.75 549.2 234.6 546.95 235.15 544.9 235.8 544.25 235.65 543.9 235.6 543 234.6 542.35 233.7 541.45 233.7
L 541.2 233.7 533.85 235 526.3 235.15
Q 521.9 235.3 519.05 235.75
L 518.95 235.75 518.75 235.8
Q 517.95 236 515.95 236.9 514.2 237.8 513.25 237.75
L 513.2 237.75
Q 512.55 237.75 511.75 237.25 510.9 236.7 510.55 236.7 509.7 236.65 507.75 237.8
L 507.65 237.9 506.15 238.9
Q 505.55 239.3 505.05 239.8
L 505.05 239.85 501.25 237.15
Q 501.35 237.25 501.25 237.35
L 501.3 237.45 501.3 237.55 501 240.25
Q 500.5 241.2 499.2 241.45
L 495.85 241.2 493.55 241.4 493.45 241.45
Q 490.15 242.8 487.9 243.45 484.2 244.4 483.45 241.35 482.9 241.5 482.25 242.75 481.75 243.9 480.35 244.2 476 245.05 468 244.8 459 244.5 455.7 244.9 453.9 245.05 451.35 246.1 448.05 247.4 447.25 247.5 441.8 247.9 439.7 248.3
L 439.45 248.35 439.3 248.35 436.65 250.1
Q 435.8 251.25 436.05 253.25
L 434.25 253.35 434.2 253.35 433.45 256.5
Q 432.75 257.05 429.25 256.75 426.05 256.6 425.2 257.9 427.1 258.8 428.7 261.5 430.35 264.3 430.05 266.3 430 266.65 428 269.25
L 427.8 269.4 427.75 269.45 425.55 272.3 424.8 274.85 424.8 275
Q 424.35 277 423.8 277.95
L 424.25 278 426.35 277.35
Q 427.05 277.05 427.85 276.45
L 429.5 275.35 431.4 274.6 431.55 274.6 439.1 276.6 439.2 276.6
Q 442.05 278.25 441.5 281.6
L 441.45 281.7 441.45 281.85 441.4 281.95 440.7 284.3
Q 440.05 286.25 439.55 287.45
L 437.7 293.5
Q 436.4 297.7 435.5 299.4 435.1 300.4 432.95 302.6
L 432.85 302.7 432.8 302.9 432.4 304
Q 432.4 304.85 433.7 305
L 434 305 434.25 305.05 437 304.4
Q 437.4 304.3 438.15 303.95
L 439.4 303.35 442.2 301.5 442.25 301.45
Q 442.75 300.95 443.75 299.1 444.6 297.6 445.05 297.25 445.75 296.8 447.45 296.9 449.4 296.9 450.05 296.75 450.45 296.7 451.6 295.5 452.55 294.55 453.45 294.9 455.15 295.5 456.05 296.55 457.25 298.1 459.85 302.9 462.85 308.25 462.9 309.25 463 309.65 461.75 315.65 461.4 316.6 460 317.55 458.7 318.3 458.7 318.5 458.65 320.15 459.6 321.2 460.75 322.35 462.1 321.45
L 462.1 321.4 462.45 320.35
Q 462.7 319.35 462.85 319.1
L 463.05 318.85
Q 463.3 318.65 464.55 318.1 465.8 317.75 466.35 317 467.3 314.6 467.5 313.9 468 312.5 470.75 313.1 473.5 313.75 474.1 316.8 474.5 318.4 474.85 320.85 475.25 321.5 477.35 322.05 478.8 322.8 476.9 325.7 476.65 326.2 475.45 327.2 474.6 328 474.25 328.55 473.8 329.4 473.65 331.15 473.5 333.3 473.3 333.9
L 470.95 343 470.55 345.85 470.55 346.1 472.85 347.5 473.15 344.75 477.9 344.7
Q 477.9 341 479.3 340.1 479.75 339.9 480.45 340.1
L 481.65 340.25
Q 482.15 340.15 482.8 339.75 483.5 339.4 483.75 339.4
L 483.8 339.4
Q 484.25 339.4 485.65 339.95
L 485.75 340.05
Q 486.8 340.05 486.2 337 486.7 336.75 489.1 336.8
L 491.6 336.85 492.1 335.8
Q 492.5 334.8 493.05 334.55 494.65 333.65 498.15 333.65 501.85 333.8 503.05 334.85 503.55 335.2 503.8 336.7 504.05 337.75 504.7 337.75 504.5 333.95 507.95 332.9 510.5 332 514.45 332.95
L 528.55 335.75 539.15 339.6 539.35 339.75
Q 539.75 340.1 540.05 340.8 540.35 341.65 540.5 341.8 541.4 342.3 544.7 342.7 547.3 343.45 546.55 346.15
L 548.9 346.1 550.55 351.5 555.45 352.05
Q 556.35 352.65 555.9 354 555.85 354.1 555.45 355.25
L 557.05 355.2 559.35 355.45
Q 560.2 355.75 560.2 356.3
L 559.7 357.05
Q 559.15 357.9 559.15 358.4 559.1 361.05 560.4 364.85 562.05 369.8 562.3 371.1 562.45 372.3 562 374 561.6 375.75 561.7 376 561.8 376.45 562.7 376.75 563.65 377.25 563.65 377.55 564.1 379.1 563.55 381.35 563 383.2 561.9 384.75 561.55 385.4 560.25 385.55
L 560.2 385.55
Q 560.2 385.8 560.45 386.5
L 560.85 387.85 560.9 387.95 560.9 388 560.95 388.1 560.95 388.15 561 388.25 561 388.3 561.05 388.4 561.05 388.45 561.1 388.6
Q 561.65 391.6 558.9 392.95 561.65 394.5 561.95 396.1 562.1 396.6 561.7 397.05 561.1 397.75 561.1 397.85
L 560.9 400.95 559.95 403.05 559 406.5
Q 558.35 409 557.85 410.1
L 557.25 410.7
Q 556.75 411.1 556.25 411.35 555.5 411.7 555.4 412.2
L 555.4 412.5 555.45 412.55
Q 555.85 413.55 559 413.3 562.35 413.1 563.35 414.1
L 568.25 408.8 575.05 410.05
Q 575.8 410.65 577.2 414.9
L 578.25 418.35
Q 578.65 419.7 578.7 420.35
L 578.8 422.5 578.2 427.15 578.15 427.3 578.15 427.4 578.1 427.6 578.1 427.75
Q 577.9 431.65 581.2 433.3 581.8 431.3 583.8 431.15 584.8 431 587.65 431.25
L 587.65 427.7 588.3 427.75 591.45 427.1 592.7 426.65
Q 596.05 425.05 597.7 424.9
L 597.75 424.9
Q 598.55 424.8 599.65 425.25 600.7 425.6 601 425.6
L 601.1 425.55
Q 601.25 425.55 601.35 424.9 601.5 424.35 601.65 424.2
L 601.75 424.2
Q 602.75 424.05 604.75 424.75 606.85 425.6 607.3 426.25 608.3 428.25 605.45 436.8 602.6 445.4 602.9 445.9
L 606.15 448.1 606.15 444.55 609.6 443.95 615.5 441.45 615.7 441.4
Q 618.35 440.3 620.6 440 621.4 439.65 623.25 437.55 624.8 435.75 626.3 436.05 626.5 436.15 629.35 439.45 630.7 441.75 630 443.85
L 629.95 443.95 628.95 446.95 629.85 450.2
Q 630.55 452.3 629.5 453.7 631.2 453.25 633.8 454.85 636.75 456.65 637.7 456.95
L 638.4 457 639.45 456.85 640.2 456.65 640.25 456.65
Q 641.5 456.65 642.15 458.65 642.7 458.2 645.9 454.2 648 451.6 650.7 451.6 650.1 450.7 650 449.3
L 650.5 446.25 650.6 446.05
Q 652.05 441.75 652.05 441.4
L 652 440.95
Q 651.85 440.45 651.15 439.8 650.25 438.85 650.1 438.45 649.85 437.35 650.8 436.4 651.85 435.35 651.85 435.05
L 651.5 434.45
Q 651.05 433.8 651.05 433.3 651.1 432.3 652.05 431.05 653.25 429.6 653.35 429.35 653.8 427.8 654.4 424.25
L 655.5 419.1
Q 655.55 418.85 656.65 418.15 657.65 417.5 658 416.5 658.35 415.4 658.35 413.2 658.2 410.6 658.3 409.8
L 658.3 409.75 658.35 409.5
Q 658.55 408.95 658.85 408.5
L 659.45 407.65 659.5 407.6 659.5 407.5 658.65 405.35
Q 658.35 404.45 658.15 403.3
L 658.3 401.45
Q 658.3 401.25 658.95 401 659.6 400.75 659.65 400.45 660.25 398 657.9 392.7 656 388.4 658.3 385.5 654.55 386.25 653.15 380.05
L 653.05 379.6 653.55 373.35
Q 654.1 372.75 654.9 372.45
L 654.9 371.1
Q 653.55 370.6 652.95 369.55
L 653.05 367.05 653.15 366.9 653.2 366.75 653.25 366.65
Q 655.75 363.2 656.05 361.85 657 358.7 656.9 349.8 656.75 338.65 656.95 336.7 656.95 336.3 657.65 335.2 658.25 334.35 658 333.5 657.75 332.5 656 330.8 654 328.75 653.6 328.05 653.4 327.75 651 322.9
L 648.5 317.8
M 574 293.55
L 574.55 293.6
Q 575.85 291.1 577.95 289.25
L 578 289.2
Q 579.15 287.9 580.75 286.95
L 582.8 285.75 582.85 285.75
Q 582.85 285.35 583.15 285.05 583.5 284.45 584.15 284.4 584.8 284.25 585.35 284.7 585.8 285 585.95 285.5 586.7 285.9 587.5 286.75
L 588.2 287.75 588.25 287.85
Q 588.45 288.2 588.55 288.7 588.6 288.95 588.5 289.45
L 588.2 290.1
Q 586.15 292.4 583.3 293.5 581.05 297.45 577.65 300.25
L 577.6 300.35 576.5 301.25
Q 576.3 301.4 575.8 301.5 575.55 301.55 575 301.45
L 574.25 301.15 574.3 301.2
Q 574.7 301.7 574.65 302.35 574.55 303.05 574.1 303.45
L 571.8 305.5 571 308.15
Q 570.85 308.6 570.6 308.75
L 570 309.2
Q 569.55 309.3 569.4 309.45
L 569.3 309.5
Q 568.55 309.9 568 310.4
L 567.95 310.45
Q 567.6 310.7 567.45 311 567.2 311.35 566.75 311.55 566.45 311.65 565.9 311.65
L 564.45 311.35 564.55 311.85
Q 564.7 312.5 564.45 312.95 564.1 313.55 563.55 313.75 562.95 313.9 562.45 313.7
L 560.8 312.95 560.85 313
Q 561.15 313.6 560.85 314.25 560.65 314.85 560 315.15 559.4 315.4 558.8 315.15
L 552.7 312.75
Q 552.45 313.1 552.1 313.3
L 551.85 313.4 551.2 313.55 550.55 313.45 546.65 311.95
Q 546.15 311.8 545.95 311.5 545.7 311.15 545.6 310.75 545.35 309.1 545.7 308
L 545.5 307.9 545.35 307.85
Q 544.9 307.7 544.5 307.25 544.15 306.7 544.3 306
L 544.4 305.65 542.3 304.7
Q 541.8 304.5 541.55 304 541.25 303.45 541.4 303 541.45 302.45 541.9 302.1
L 541.95 302.05
Q 541.5 301.6 541.4 301.2 541.2 300.6 541.55 300 541.7 299.65 542 299.5 541.75 298.95 542 298.5
L 543.85 293.15
Q 544.15 292.65 544.3 292.55
L 544.25 292.15
Q 544.25 291.5 544.7 291.05 545.3 290.55 545.85 290.55
L 550.8 290.55
Q 551.25 290.55 551.5 290.75 551.75 290.85 552.1 291.2
L 552.65 292.05 552.65 292.1
Q 553.8 294.55 551.95 296.6
L 551.35 297.25 551.45 297.35
Q 551.7 297.6 551.9 298.1
L 551.95 298.5 551.95 299.8
Q 551.95 302.1 554.1 303.05
L 554.05 303 555.6 303.55
Q 556.3 303.8 556.55 304.3 556.7 304.7 556.7 305
L 557.05 304.9
Q 557.65 304.75 558.2 305.05 558.55 304.85 559.05 304.85 560.4 304.95 561.45 305.2
L 561.9 304.35 561.9 304.3
Q 562.45 303.4 563.35 302.7
L 563.45 302.65 565.1 301.6 565.2 300.75
Q 565.35 300.05 565.8 299.7
L 569.25 296.9 569.8 296.35
Q 570.2 295.95 570.7 295.95
L 572.2 295.65 572.2 295.05
Q 572.25 294.55 572.55 294.2 572.7 293.85 573.15 293.65 573.65 293.4 574 293.55
M 490.5 284.35
Q 490.85 284.1 491.4 284
L 495.35 283.8 496.05 283.95
Q 496.25 284 496.65 284.3 497.4 285.15 497.5 286.2
L 497.55 287.9
Q 497.55 288.45 497.2 288.95
L 497.3 289.4 497.55 292
Q 497.6 292.55 497.2 293.15 496.85 293.5 496.5 293.65 497.85 296.25 497.7 299.1
L 497.7 299.15
Q 498.9 299.45 499.9 300.3
L 499.9 300.35
Q 500.45 300.8 501.15 300.5 501.75 300.2 502.3 300.45 502.95 300.7 503.25 301.3
L 503.35 301.6
Q 503.9 301.2 504 301.15
L 504.35 301 505.45 300.7
Q 506.1 300.55 506.6 300.9 510.1 297.6 512.4 295.15 515 292.55 517.35 289.5 518.25 288.25 518.9 286.8 519.65 284.85 521.75 284.55
L 522.35 283.35
Q 522.65 282.8 523.2 282.6 523.95 282.2 524.75 282.7
L 525 282.65 525.1 282.1
Q 525.1 281.5 525.7 281.05 526.3 280.65 526.9 280.8 527.5 280.9 527.95 281.45 528.35 282 528.2 282.6 527.75 285.55 529.35 288 529.65 288.6 529.5 289.25 529.35 289.85 528.8 290.25 528.4 290.45 527.95 290.45
L 527.6 290.9 527 291.45
Q 526.5 291.85 526.05 291.85
L 525.5 291.8 525.6 292.6
Q 525.65 293.05 525.45 293.55 525.3 293.9 524.75 294.25 524.15 294.45 523.8 294.4 523.1 294.25 522.95 294.85
L 523 294.85 522.35 297.65
Q 522.35 298 521.95 298.7
L 521.6 299.1 516.85 302.55
Q 516.55 302.75 516.15 302.85
L 515.45 302.8 514.65 302.5 514.35 302.95 515 304.1
Q 515.3 304.5 515.2 305 515.2 305.4 514.9 305.85
L 514.45 306.4 514.3 306.5
Q 513.55 307.4 512 307.65
L 506.65 308.4 506.6 308.7
Q 506.55 308.95 506.3 309.25 506.4 309.65 506.35 309.9 506.25 310.55 505.75 310.95 505.35 311.4 504.65 311.3
L 501.1 311
Q 500.35 310.9 500 310.4 499.6 310 499.6 309.3
L 499.65 309.15 498.75 309.6
Q 498.25 309.95 497.6 309.8 496.95 309.55 496.6 309.15 495.95 309.2 495.4 308.75
L 494.75 308.15
Q 494.05 307.45 493.65 306.6 493.15 306.75 492.65 306.6 492.05 306.35 491.75 305.8
L 488.75 299.75
Q 488.4 299.1 488.65 298.55 488.8 297.85 489.45 297.65 489.5 297.55 489.75 297.45
L 489.65 297.15 489.7 297.05
Q 488.1 295.05 489.2 292.95
L 489.25 292.9
Q 489.75 292 489.5 291 489.3 290.35 489.6 289.75 489.9 289.2 490.55 289.05 490.65 288.95 490.85 288.95
L 489.95 286.1
Q 489.8 285.55 489.95 285.1 490.1 284.6 490.5 284.35 Z"/>
</g>
</g>
</g>

<g transform="matrix( 1, 0, 0, 1, 20.8,8) ">
<g>
<g>
<path fill="#000000" stroke="none" d="
M 482.45 222.15
Q 481.6 221.85 481.05 222.05 480.55 222.2 480.15 223.15 479.85 224.05 479.45 224.2
L 476.15 224.2
Q 473.45 224.05 472.8 224.25 472.35 224.35 471.95 225.25 471.6 226.1 471.2 226.2 470.25 226.45 468.85 226.1 467.05 225.6 466.55 225.6 464.85 225.7 459.9 226.75 455.55 227.55 453.65 227.4
L 451.6 226.65
Q 450.1 226 448.7 226.15 448.05 226.2 447.7 226.95 447.4 227.7 446.7 227.7 446.25 227.7 444.2 227.15 442.5 226.65 441.4 226.95 441.1 226.95 440.85 227.7 440.7 228.3 440.4 228.3
L 437.6 228.35
Q 436.15 228.6 436.1 230.45 433.7 228.2 430.2 229.45 426.15 231.55 424.25 232.05
L 417.4 233.7
Q 412.8 234.65 410.45 235.5 408.6 236.5 408.3 238.45
L 407.85 240.85 405.05 241.7
Q 402.15 242.5 401.45 243.05
L 397.15 246.8
Q 397.05 246.9 397.05 247.8 397 248.55 396.55 248.7 395.1 249.55 390.5 250.5 386 251.45 384.45 252.35 384 252.6 383.1 253.9
L 382.3 255
Q 381.35 253.65 380.2 253.65 378.1 253.5 372.6 258.45 367.25 263.3 366.85 265.25 366.7 265.95 366.85 267.15 366.95 268.5 366.85 269.1
L 363.35 270.1
Q 362.7 270.55 363.1 271.7 363.4 273.1 363.35 273.2 363.2 273.45 361.7 274.2 360 275.2 359.65 276.15 358.75 278.05 359.7 280 360.8 282.3 360.75 282.8 360.6 284.25 358.8 285.05 356.85 285.75 356.6 286.4 356.25 287.5 356.75 289.35 357.3 291.25 357.15 291.8 356.95 292.45 355.4 293.85 353.95 295.05 353.4 295.8 353.15 296.55 353.05 298.2 353 299.75 352.7 300.6 352.4 301.2 350.35 304.6 348.6 307.6 347.6 308.8 347.1 309.65 345.2 311.25 343.85 312.75 344.5 314.1 344.75 314.65 346.15 315.25 347.25 315.7 346.95 316.9 344.9 315.35 342.9 317.4 341.3 319.1 340.9 321.65 340.8 322.35 341.15 323.35
L 341.45 324.6 340.05 325.2
Q 338.85 325.85 338.35 326.8 338.2 327.05 338.3 329.1 338.35 329.75 338.25 330.75
L 337.85 330.85 337.3 331.25 336.5 332.05 336.25 332.45
Q 336.2 332.5 335.95 332.85
L 335.65 333.65 335.65 334.45 335.55 334.8 335.65 335.25 335.65 336.05 335.95 336.85 336.25 337.2 336.5 337.6 337.4 338.45
Q 337.35 339.45 337.65 341.75 337.65 342.2 338.45 343.3 338.45 344.25 337.4 346.35 337.1 347.95 340.75 347.85 338.8 352.45 339.75 354.95 340.3 355.85 341.6 355.4
L 342.8 354.9 342.85 356.95
Q 343.7 360.8 341.2 364.6 338.35 367.75 337.3 369.3 337.15 369.45 337.15 369.65 334.95 372.6 336.65 374.1 334.15 374.25 332.45 378.35 331.05 382.1 329.95 392.6 329.95 393.15 330.25 393.85
L 330.4 394.3
Q 330.9 395.5 330.9 396.35 330.9 397.8 330.2 400.35 329.85 402.05 330.75 412.2
L 331.2 411.85
Q 330.6 414.6 332 416.1 332.5 416.7 334.65 418.5 336.6 421.1 337.65 422.8 338.5 424.15 339.75 427.3 340.5 429.55 341.85 431.45 343.1 433.4 348.75 438.15 353.45 442.1 354.1 445.5 354.65 448.1 354.9 448.55
L 355.85 450.35 356.9 454.3
Q 357.8 457.8 360.55 462.3
L 361.35 463.85
Q 361.8 464.65 361.9 465.15 362.2 466.3 361.75 467.35
L 360.65 469.85
Q 360.65 470.35 361.2 471.3 361.75 472.3 361.75 472.65
L 361.4 475.85
Q 361.1 477.85 361.7 479.35 362.1 480.75 363.2 481.1 364.45 481.65 364.85 481.95
L 370.55 490
Q 370.85 490.45 371.3 491.85 371.75 493.25 372.25 493.8 373.45 495 376.75 496.2 380.85 497.55 381.1 497.8 381.2 497.8 381.65 498.85 382.15 499.9 382.55 500.1
L 385.15 500.45
Q 386.3 500.6 386.7 502.95 388.55 502.55 389.6 503.35 390.3 503.75 391.7 504.85 392.65 505.3 397.3 507.85 400.6 509.7 402.5 510.6 402.9 510.8 404.25 510.95 405.4 511.1 405.9 511.35 407.1 512 407.85 514.7 408.85 517.95 409 518.05
L 409.15 518.2
Q 409.6 518.6 411.35 518.9 412.6 519.05 415.95 522.55
L 418.65 524.1
Q 426.1 528.8 426.75 528.5 426.95 528.4 427.85 526.9 428.4 526.1 431 527.45 432.6 528.25 433.8 528.1 435.1 527.9 435.7 528 436.65 528.3 439.35 529.7
L 439.4 529.8 439.55 529.9
Q 441.4 530.9 442.15 531.2
L 443.05 531.6 444.05 531.9
Q 446 532.4 448.6 532.75
L 448.85 532.75 449 532.8
Q 453.05 533.4 454.65 533.8 455.5 534.1 455.85 534.8
L 456 535.15
Q 456.25 535.6 456.35 535.6 456.9 535.6 458.1 534.9 459.5 534.2 460.4 534.2 461.3 534.2 463 534.9 464.6 535.55 465.3 535.55 465.65 535.55 466.5 535
L 466.55 534.9
Q 467.2 534.5 467.75 534.4
L 467.85 534.4
Q 468.95 534.3 471.35 535.2
L 474.65 536.25 474.9 536.25
Q 476.1 536.35 479.1 536.25 481.6 536.05 483.05 536.3 483.85 536.35 485.3 538.45 486.6 540.15 488.2 539.85
L 488.2 540 498.65 541.6 500.55 541.45 501.95 541.5 502.05 541.55 502.75 542.25
Q 503.15 542.6 504.05 542.95
L 508 543.2 509.55 542.9 509.65 542.85 513.05 541.95 515.45 542.1 515.5 542.4 520.85 542.4 521.1 542 521.75 541.35 522.6 540.7 524.3 540.5 524.3 540.3 525.15 540.3 526.45 540.65
Q 527.05 540.2 527.8 539.9 528.2 539.75 529.15 539.75 530.05 539.75 530.25 539.6
L 530.3 538.7
Q 530.25 537.8 530.45 537.6 530.95 536.75 534.4 535.55
L 538.4 534.2
Q 538.75 533.95 543.15 529.95 547.45 526 548.05 525.35 548.45 525 549.1 523.5 549.7 522.2 550.1 521.9 550.8 521.4 552.7 521.25 554.8 521 555.15 520.75 555.25 520.7 556 519.4
L 557 518.2
Q 558.2 516.85 562.25 513.15
L 562.1 513.1
Q 562.2537109375 513.1462890625 562.3 513.1
L 563.6 512 562.5 513.15
Q 567.4 514.2 567.7 514.1 568.3 513.85 570.3 513.65 572.1 513.5 573.25 512.8
L 576.15 509.95
Q 577.7 508.4 579.65 509.6
L 579.95 509.9
Q 582.25 508.5 584.85 507.5
L 584.85 507.1 594.25 495.95
Q 599.75 482.7 600.3 482.2 600.65 481.8 603.25 480.3
L 606.55 478.4
Q 607.55 477.4 608 477.1 608.95 476.55 610.85 477.2 611.45 475.75 611.25 474.3 611 473.1 610.25 471.6 612.6 472.05 614.05 470.15 615.65 467.55 616.65 466.7 619.15 464.65 623.6 461.85 627.95 459.15 630.8 457.15 636.95 452.6 638.9 440.2 639.8 433.45 640.4 430.35 641.2 424.85 642.6 421.85
L 643.25 421.5
Q 643.95 421.3 644 420.9 644.4 420 644.6 417.6 644.75 415.4 645.35 414.35 645.6 413.85 646.4 413.45 647.2 413.1 647.3 412.75
L 647.1 398.3
Q 646.95 397 645.4 392.4 643.95 388 644 386.1 644 385.35 644.7 383.95
L 645.35 382.8 643.4 373.55 643.1 374.2 642.9 374.15 640.25 368.6
Q 640.15 366.7 640.35 365
L 642.3 353.85 642.35 353.75 642.4 352.9
Q 642.4 351.95 642.2 350.9 642 349.2 642.3 348.15 642.65 346.95 643.45 345.95
L 643.5 345.85 644.3 344.65
Q 644.4 344.25 644.3 343.05
L 644.05 339.9
Q 644.15 339.9 644.05 339.8
L 644.05 339.55
Q 643.55 335 643.75 333.4 643.75 332.75 644.75 332.2 645.45 331.8 645.15 330.7 641.95 329.45 642.4 326.95 643.7 324.3 643.6 323.55 643.6 322.55 641.6 321.15
L 639.05 319.3
Q 638.4 318.55 637.2 314.95
L 637.1 314.7 636.35 311.95
Q 636.2 310.95 636.35 310.65
L 636.5 310.55
Q 632.2 300.4 630.7 297.95 629.2 295.55 628.95 294.6 628.75 294.2 628.75 292.6 628.75 291.25 628.45 290.85 628.15 290.45 627.2 290.35
L 626.1 290.1
Q 625.9 289.75 625.95 288.6 626.05 287.2 625.7 286.65 625.55 286.45 622.9 284.7 620.2 283.1 619.8 282.65 618.35 281.1 616.9 276.8 615.15 272.15 614.25 270.95 613.45 270 612.15 269.5 611.05 269.2 610.95 269
L 611.05 265.85
Q 611.15 262.65 610.05 261.55 609.95 261.45 608.95 261.1 607.9 260.9 607.45 260.35 606.9 259.85 605.8 258.3 604.65 256.75 604.5 256.65 604 256.3 602.6 256.1 601.45 255.95 600.85 255.55 600.3 255.25 599.1 252.9 597.85 250.45 597.15 249.85 595.9 248.75 593.55 248.1 590.85 247.35 590.5 247.1 588.65 245.8 586.85 245.35 586.65 245.25 582.45 244.55
L 576.95 243.95
Q 569.8 243.1 569.05 242.75 568.55 242.4 568 241.4 567.3 240.2 567 240 565.7 239 561.45 237.4 557.2 235.8 555.8 234.55 555.1 233.85 552.95 230.6 551 227.7 549.8 227.2 549.05 226.9 548.1 227.2
L 547.2 227.5 546.9 226.75
Q 546.55 225.85 546.05 225.55 545.55 225.25 542.95 224.35 540.95 223.7 539.95 222.7
L 538.1 219.5
Q 537.1 218 534.55 218.45 534.15 218.55 533.3 219.15 532.6 219.65 532.2 219.65 529.95 220.15 523.1 218.7 516.3 217.3 512.55 217.8 511.35 218 509 219 506.55 219.85 504.9 219.95 494.9 219.8 491.25 219.9 489.95 219.9 486.95 221.1
L 483.75 222.45 482.45 222.15
M 461.6 234.65
Q 462.3 233.35 462.8 233.2 463.55 236.35 467.25 235.3 468.95 234.85 472.8 233.3
L 472.9 233.25
Q 473.9 233.1 475.2 233.1 476.05 233.1 478.55 233.3 479.8 233.15 480.35 232.15
L 480.65 229.45 480.65 229.35 480.6 229.2
Q 480.65 229.15 480.6 229
L 484.4 231.65
Q 484.9 231.15 485.5 230.75
L 487 229.75 487.1 229.7
Q 488.95 228.5 489.9 228.6 490.3 228.6 491.1 229.1 491.95 229.65 492.55 229.65
L 492.6 229.65
Q 493.55 229.7 495.3 228.8 497.35 227.8 498.15 227.7
L 498.3 227.65 498.4 227.65
Q 501.35 227.15 505.65 227.05
L 513.2 226.9 520.55 225.55 520.8 225.55
Q 521.65 225.65 522.4 226.45 523.15 227.45 523.6 227.5 524.1 227.7 526.3 227.05 528.5 226.45 529.45 226.6 534.65 227.3 538.3 229.85 540.3 231.4 545.1 235.7
L 550 239.45
Q 550.4 239.7 551.65 239.55
L 553.55 239.6
Q 554.05 239.9 554.5 240.65 555.05 241.65 555.55 241.9 556.5 242.55 558.45 242.8 560.4 243.05 560.7 243.25
L 562.1 244.6
Q 562.5 245 565.85 245.95
L 567.3 247.3
Q 568.95 248.8 570.4 249.1 572 249.45 576.95 249.45
L 577.9 249.45
Q 582.55 249.4 585.3 250.7 587.9 251.9 590.45 254.3 594.65 258.5 594.8 258.5 597.5 260.7 600.5 262.6 603.15 264.7 604.9 268.65 605.15 269.2 606.4 273.3 607.35 276.55 608.25 277.75 608.7 278.55 610.3 279.65 611.65 280.55 611.95 281.05
L 611.95 281.1 612.05 281.45
Q 612.25 282.1 612.3 282.85 612.4 283.85 612.5 284.25
L 612.65 284.55 613.95 286 618.7 289.45 618.75 289.5
Q 619.65 290.5 620.75 294.15
L 621.55 296.9 622 297.85
Q 622.3 298.05 623.35 297.9 624.3 297.85 624.75 298.35 626.15 300.1 626.8 303.95
L 627.8 309.6 627.85 309.65
Q 628.35 310.8 630.35 314.75 632.6 319.45 632.95 319.9 633.35 320.6 635.35 322.65 637.2 324.45 637.35 325.35 637.6 326.2 637 327.05 636.3 328.2 636.3 328.55 636.1 330.5 636.25 341.65 636.35 350.6 635.4 353.7 635.1 354.95 632.6 358.55
L 632.5 358.75 632.4 358.9 632.35 361.4
Q 632.8 362.4 634.3 363
L 634.3 364.3
Q 633.4 364.7 632.9 365.2
L 632.4 371.5 632.5 371.9
Q 634 378.05 637.65 377.4 635.35 380.25 637.25 384.6 639.6 389.9 639 392.35 638.9 392.7 638.3 392.85 637.65 393.1 637.65 393.35
L 637.55 395.15
Q 637.65 396.25 638.05 397.2
L 638.85 399.4 638.85 399.45 638.8 399.5
Q 638.7 399.85 638.25 400.35 637.8 401.1 637.7 401.35
L 637.65 401.65 637.65 401.7
Q 637.55 402.45 637.7 405.05 637.7 407.25 637.35 408.35 637 409.4 636 410 634.95 410.7 634.85 410.95
L 633.75 416.1
Q 633.15 419.7 632.7 421.2 632.6 421.45 631.4 422.9 630.5 424.15 630.4 425.2 630.4 425.7 630.85 426.3 631.25 426.85 631.25 426.95 631.25 427.2 630.15 428.25 629.2 429.25 629.45 430.35 629.55 430.6 630.6 431.65 631.2 432.25 631.35 432.85
L 631.4 433.25
Q 631.4 433.7 629.95 437.9
L 629.85 438.15 629.35 441.15
Q 629.45 442.55 630.1 443.5
L 630.05 443.5
Q 627.35 443.5 625.25 446.1 621.85 450.25 621.5 450.5 620.85 448.5 619.6 448.55
L 618.8 448.75 617.75 448.85 617.05 448.8
Q 616.45 448.65 613.15 446.75 610.7 445.15 608.85 445.55 609.9 444.25 609.2 442.05
L 608.8 440.75
Q 608.3 439.1 608.3 438.8
L 609.3 435.8 609.35 435.75
Q 610.05 433.6 608.7 431.35 605.9 428.05 605.65 427.95 604.15 427.65 602.6 429.45 600.75 431.6 599.95 431.85 597.65 432.25 595.1 433.25
L 594.85 433.3 588.95 435.8 585.5 436.45 585.5 440 582.25 437.75
Q 581.95 437.3 584.8 428.7 587.65 420.1 586.65 418.15 586.2 417.4 584.1 416.65 582 415.9 581.1 416.05
L 581 416.05
Q 580.85 416.25 580.75 416.75 580.6 417.4 580.45 417.45
L 580.4 417.5
Q 580.2 417.5 579 417.1 577.75 416.7 577.1 416.75
L 577.05 416.75 576.95 416.8
Q 575.35 417.05 572.1 418.5
L 570.85 419 567.65 419.6 567 419.55 567 423.1
Q 564.1 422.95 563.15 423 561.15 423.15 560.55 425.2 557.25 423.55 557.45 419.6
L 557.45 419.45 557.5 419.3 557.5 419.2 557.55 419.05 558.15 414.35 558.05 412.25
Q 557.95 411.55 557.6 410.2
L 556.6 407 556.55 406.75
Q 555.15 402.5 554.45 401.95
L 547.6 400.65 542.7 406
Q 541.75 405 538.35 405.2 535.25 405.35 534.8 404.45
L 534.75 404.4 534.75 404.05
Q 534.85 403.6 535.6 403.2 536.15 402.95 536.6 402.6
L 537.2 402
Q 537.7 400.8 538.35 398.4
L 539.3 394.95 540.25 392.8 540.45 389.75
Q 540.45 389.55 541.05 388.95 541.55 388.4 541.3 388 541 386.35 538.25 384.8 541.05 383.45 540.45 380.45
L 540.4 380.35
Q 540.45 380.3 540.4 380.3
L 540.35 380.2 540.35 380.15 540.3 380.05 540.3 380 540.25 379.85 540.25 379.8 540.2 379.7 539.55 377.45 539.6 377.45
Q 540.9 377.2 541.25 376.65 542.25 375.35 542.9 373.25 543.45 371 543 369.4 543 369.1 542.05 368.6 541.2 368.3 541.05 367.9 541.05 367.8 541.35 365.85 541.8 364.2 541.65 363 541.25 361.1 539.75 356.75 538.45 352.85 538.5 350.25 538.5 349.75 539.05 348.95
L 539.55 348.2
Q 539.55 347.65 538.7 347.35
L 536.4 347.1
Q 535.95 347.05 534.8 347.15 535.2 346.1 535.25 345.85 535.7 344.55 534.8 343.95
L 529.9 343.35 528.25 337.95 525.9 338
Q 526.65 335.4 524.1 334.55 520.75 334.15 519.85 333.65 519.7 333.55 519.4 332.7 519.1 331.9 518.7 331.65
L 518.5 331.45 507.9 327.6 493.85 324.85
Q 490 323.9 487.3 324.8 483.85 325.8 484.05 329.6 483.4 329.6 483.15 328.55 482.95 327.15 482.4 326.7 481.1 325.65 477.5 325.55 474 325.55 472.4 326.45 471.85 326.75 471.45 327.65
L 470.95 328.7 468.45 328.65
Q 466 328.65 465.55 328.85 466.15 332 465.1 331.9
L 465 331.85
Q 463.65 331.25 463.15 331.25
L 463.1 331.25
Q 462.65 331.35 462.15 331.65 461.25 332.1 461 332.1 460.7 332.2 459.8 331.95 459.1 331.8 458.65 331.95 457.3 332.95 457.3 336.55
L 452.5 336.6 452.25 339.4 449.9 337.95 449.9 337.75 450.3 334.85 452.6 325.9 452.65 325.8
Q 452.85 325.25 453 323.05 453.25 321.05 453.6 320.45 453.8 320 454.85 319.05 456.05 317.9 456.25 317.55 458.1 314.7 456.7 313.9 454.65 313.45 454.2 312.75 453.8 310.15 453.45 308.65 452.85 305.6 450.1 305 447.4 304.35 446.85 305.8
L 445.7 308.85
Q 445.2 309.55 443.9 310 442.65 310.45 442.4 310.75
L 442.2 311
Q 442 311.45 441.9 312.2
L 441.45 313.25 441.45 313.35
Q 440.1 314.25 438.95 313.05 438 312 438.05 310.35 438.05 310.25 439.35 309.4 440.7 308.55 441.1 307.55 442.35 301.55 442.25 301.1 442.2 300.25 439.25 294.75 436.3 289.5 435.4 288.45 434.4 287.3 432.8 286.8 431.9 286.45 430.95 287.4 429.75 288.55 429.4 288.6 428.75 288.85 426.8 288.75 425.2 288.7 424.4 289.15 424.05 289.35 423.1 291 422.15 292.75 421.6 293.3
L 421.55 293.35 418.75 295.25 416.35 296.3 413.6 296.95 413.35 296.9 413.05 296.9
Q 411.75 296.65 411.75 295.85
L 412.2 294.6 412.3 294.5
Q 414.5 292.15 414.85 291.25 415.8 289.45 417.05 285.35
L 418.9 279.3
Q 419.4 278.15 420.05 276.2
L 420.75 273.85 420.8 273.75 420.8 273.6 420.85 273.5
Q 421.35 270.05 418.55 268.5
L 418.5 268.5 410.9 266.45 410.75 266.45 408.85 267.2 407.3 268.35 405.7 269.25 403.6 269.85 403.15 269.8
Q 403.75 268.8 404.15 266.9
L 404.15 266.75 404.9 264.2
Q 405.1 263.85 405.6 263.25
L 407.1 261.3 407.15 261.25 407.35 261.1
Q 409.35 258.5 409.4 258.2 409.7 256.15 408.1 253.35 406.45 250.7 404.55 249.75 405.5 248.45 408.6 248.65 412.2 248.9 412.8 248.4
L 413.55 245.25 413.6 245.25 415.4 245.15
Q 415.15 243.15 416 241.95
L 418.65 240.2 418.8 240.2 419.05 240.15
Q 421.15 239.75 426.6 239.35 427.6 239.2 430.7 238 433.2 236.9 435.05 236.75 438.35 236.35 447.35 236.65 455.35 236.95 459.7 236.05 461.05 235.85 461.6 234.65
M 413.4 277.7
Q 411.3 279.85 411.05 280.35 410.4 281.8 409.95 284.85 409.4 288.6 409.25 289 409.1 289.5 407.55 290.55 405.9 291.75 405.55 293
L 403.8 299.7
Q 403.55 302.1 404.1 303.4
L 405.9 304.8 406.2 304.8
Q 407.8 304.75 411.75 303.2 412.05 303.1 413.95 302.85 415.1 302.75 416.75 302.35 418.3 301.95 420.45 301.8 422.15 301.25 422.5 298.75 424.1 298.9 427.2 297.25
L 427.35 297.15
Q 429.75 295.8 431.2 295.7
L 431.25 295.7 431.6 295.75 432.85 296.5 435.95 298.75
Q 436.2 299.3 436.15 301.85 436.15 304.6 435.95 305.15 435.8 305.85 434.65 306.4 433.55 307 433.4 307.55
L 433.35 307.85 433.7 309.65
Q 434 310.75 434.1 311.8
L 434.1 312.3
Q 434 312.95 433 315.8 432.2 318.15 432.65 319.75 433.35 319.6 435.35 319.65 437.5 319.75 437.75 319.55 438.25 319.35 438.55 318.65
L 438.95 317.75
Q 439.35 317.5 440.8 317.55 442.2 317.65 442.95 317.3 443.5 317.1 443.9 316.05 444.35 315 444.5 314.95 444.65 314.8 446.65 314.55 448.3 314.4 449.05 313.4 449.4 314.4 448.5 315.7 447.45 317.25 447.35 317.55 447.2 318.05 447.75 319.05 448.3 320.15 448.25 320.65 448.2 323 446 326.6 443.85 330.45 443.7 331.55 443.55 332.95 444.25 337.1 445 341.4 445 342.5 445 342.75 444.5 342.9 443.85 343.1 443.7 343.5
L 443.4 345
Q 443.35 346.05 442.6 346.5
L 442.25 343.95 439.15 343.55
Q 438.7 346.75 435.25 346.65 433 346.35 431.6 346.35
L 430.3 346.45 429.75 346.55
Q 429.45 346.65 429.1 346.9
L 428.65 347.4
Q 428.15 348.05 427.75 348.2
L 418.65 351.6 417.6 352.1 417.6 352.05 417.5 352.1 417.5 350.05 413.45 350
Q 414.05 347.3 413.9 344.1
L 413.55 338.3
Q 413.55 337.8 413.85 336.75 414.15 335.65 414.15 334.85
L 414.15 334.75 413.8 333.6
Q 413.6 333 413.05 331.85 412.55 330.75 412.15 330.1
L 411.4 329.2 411.35 329.2 404.1 327.4
Q 402.9 327.35 402.5 327.9 402.1 328.75 401.95 328.8 400.3 329.45 398.4 328.85 395.6 328.15 394.95 328.15 395.25 332.2 392.1 333.3
L 386.05 335.25 388.75 318.35
Q 388.4 318.4 387.9 318.35 386.75 318.4 384.15 318.25 381.1 318.2 379.45 318.25 378.2 318.35 375.4 319.05 373 319.7 371.85 320.4 370.45 321.2 367.4 321.2
L 362.7 321.15
Q 364.45 315.05 364.35 312.5 364.3 307.35 359.35 308.4 358.95 308.1 359.35 304.25 359.75 300.35 359.95 299.8 360.2 299.45 361 299.2
L 361.85 298.9 362.35 298.65 364.55 296.2
Q 366.2 294.55 367.4 293.9 367.2 292.95 367.85 291.25 368.55 289.7 368.75 288.95
L 370.7 279.1
Q 370.9 278.5 370.9 277.05 370.8 275.6 370.95 275.3 372.35 274.05 373.15 273 374.9 270.65 373 267.7 375.85 267.95 376.5 266.25 376.9 264.2 377.25 263.6 377.45 263.3 383.85 260.2
L 391.75 256.45 391.95 256.2
Q 392.2 255.8 392.25 255.1
L 392.3 255.1
Q 392.55 255.1 393.3 255.5 394.2 255.85 394.55 255.8 395.6 255.65 397.8 254.95 399.7 254.5 401.05 255.05 401.35 256.95 398.95 264.65 396.85 271.2 399 273.75 400.35 275.15 406.15 274.8 409.7 274.55 414.15 274 414.75 276.3 413.4 277.7
M 375.75 325.2
Q 378.7 323.15 381.25 324
L 379.85 319.75
Q 384.9 321.95 384.2 324.5 383.8 326.05 381.9 329.95 381.85 330.7 381.9 332.45 382.15 334.05 381.9 334.7 381.85 335.1 381.1 335.4 380.25 335.8 380.2 335.9 380.05 336.3 380.25 337.1 380.65 338 380.55 338.3 380.4 339.35 379.45 341.5 379.15 343.45 381.7 344.2
L 382.75 344.35 383.15 344.3
Q 383.7 344.3 384.3 343.95
L 385.6 343.3 386.25 343.05 386.3 343.05 387.55 343.3
Q 388.3 343.55 388.9 343.4 390 343.2 394.35 341.95 397.5 340.95 399.7 340.85
L 399.7 337.25 405.2 338 405.2 335.9
Q 409.4 336.15 409.25 338.65 409.15 340.3 408 344.1 407.8 347.05 409.05 352.15 410.45 358.05 412.55 358.95 413.3 359.35 415.8 359.65 418.45 359.95 419.1 359.7 420.15 359.4 421.2 357.1 422.1 355.1 423.45 355.1
L 424.2 355.2 425.05 355.6
Q 425.15 355.7 425.9 356.05
L 426.2 356.15 426.3 356.15
Q 426.7 356.2 427.7 355.95 428.6 355.65 428.95 355.65 429.25 355.65 430.45 356 431.1 356.2 431.5 356.2
L 431.55 356.2
Q 431.95 356.2 432.2 355.55
L 432.45 355.1
Q 432.75 354.1 433.35 354.25
L 434.35 355.55 437.35 352.45 437.45 352.4
Q 439.9 349.85 440.85 350.65 439.15 352.15 438.9 354.4 438.8 355.45 438.7 358.6 438.5 359.3 437.7 361 436.6 362.65 436.35 363.25 436.15 363.7 436.15 365.3 436.1 366.6 435.95 366.7 435.9 366.8 434.75 366.95 433.7 367.2 433.4 368 432.8 369.75 434.3 371.7 435.9 373.75 435.9 374.2 432.55 376.8 433.6 378.85 434.25 379.85 435.4 380.6
L 435.35 380.9
Q 435.35 381.3 434.85 382.4 434.3 383.8 434.2 384.2
L 434.1 384.65 434.1 384.75
Q 434.05 386.35 435.25 390.1 436.7 394.6 436.8 395.35 436.8 396.4 436.35 397.95 435.9 399.75 436.1 400.6
L 440.25 401.75 440.55 406.25
Q 443.1 406.85 444.1 410.05
L 444.15 410.15 444.2 410.35 445.35 413.35
Q 445.85 414.4 446.35 414.9 446.85 415.3 447.55 415.55
L 448.1 415.6
Q 448.9 416 448.45 418.85
L 453.2 418.15 453.2 418.3 453.25 418.5 453.25 418.55 454.6 421.8
Q 455.4 422.75 456.15 423.4
L 457.55 424.35 461 426.1 461.2 426.15 461.4 426.25
Q 463.15 426.9 464.7 427.05 465.8 427.5 465.85 430.85
L 465.95 430.95
Q 466.5 431.55 467.45 431.55
L 468.05 431.5 472.05 430.7 478.85 431.5
Q 482.15 431.95 486.2 433 489.7 433.6 494.35 432.65 495.5 432.4 499.05 430.95 502.15 429.75 503.2 429.75 503.6 429.75 505.05 430.4 506.15 430.95 507.7 430.8 508.7 430.65 511.9 428.1 514.7 425.85 516.95 426.6 517.05 427.45 516.5 428.2 515.75 429.35 515.65 429.8 515.5 430.3 515.65 431.5
L 515.65 433.2
Q 515.55 433.6 514.7 433.9
L 514.65 433.9 514.1 434.2
Q 513.75 434.5 513.65 434.8
L 513.45 441.25
Q 513.4 441.45 511.85 442.45 510.45 443.75 510.05 445.3 509.95 446.35 510.3 447.55 510.65 448.8 510.65 449.45
L 510.4 454.15
Q 510.15 456.95 510.45 458.8
L 510.45 459 512.5 459.7
Q 512.65 459.05 512.9 458.8
L 513 458.6
Q 513.45 458.3 514.25 458.45
L 515.35 458.8
Q 516.55 459.1 517.25 458.9
L 517.35 458.85
Q 518.35 458.3 519.4 456.35 520.5 453.8 520.8 453.35 521.1 452.85 522.1 452.2
L 522.15 452.15 523.45 451.2 524.85 448.9 524.9 448.85
Q 525.7 447.9 528.6 447.7
L 528.65 447.7
Q 528.95 448.75 528.6 449.6
L 527.95 450.7 527.9 450.75 527.85 450.85 526.5 452.4
Q 526.05 453 526.05 453.1
L 525.25 458.8
Q 525.1 460.35 525.15 460.7 525.15 460.9 526.6 464.1
L 528.5 467.9
Q 528.9 468.65 529.6 469.05 529.65 469.1 529.65 469.05
L 530 469.35
Q 530.45 469.65 530.5 469.7
L 530.75 471.1 530.75 471.2
Q 530.9 472.15 531.75 472.95
L 532.65 473.45
Q 533.25 473.85 534 474.05
L 535.1 474.4 536.4 474.45
Q 536.7 474.45 536.9 473.7 537.3 472.95 537.65 472.8 538.5 472.5 540.1 472.35 541.5 472.35 542.35 472 542.95 471.65 543.9 469.95 545.1 467.8 545.3 467.6 547.4 465.5 550.75 464.35 554.9 462.95 556.75 464.6 556.4 465.85 554.65 468.1 552.75 470.3 552.3 471.6 551.9 472.65 550.65 477.5
L 550.6 477.65
Q 549.25 481 549.1 481.35 548.5 482.6 547.8 483.75
L 546.75 484.35
Q 546.1 484.75 546.5 485.95
L 554.5 492.65
Q 558.65 492.4 560.05 492 563.15 491.3 564.65 489.2 565.25 490.05 564.5 491.6
L 563.25 494.1
Q 563.05 494.5 563.2 495.2
L 563.45 496.05 563.5 496.15
Q 563.35 496.4 562.35 496.75 561.15 497.5 560.7 498.55 560.4 499.15 560.55 500.1
L 560.7 501
Q 560.55 501.2 556.6 504.05 554.15 505.9 556.75 507.1
L 556.6 507.7
Q 556.3 508.45 555.75 509.2 555.35 509.6 555.1 509.7
L 554.9 509.9
Q 554.25 510.35 552.55 511.25
L 552.25 511.75 551.65 511.75
Q 549.2 511.8 548.1 512.3 547.6 512.65 546.3 514.3
L 545.5 515.4 545.45 515.4 545 516.05 544.45 516.2
Q 543.85 516.3 543.4 516.25 542.45 516.1 542.1 516.3 541.85 516.5 541.6 518.05
L 541.55 518.2 541.5 518.75 541.2 519.7 541.25 519.7
Q 541.2 519.9 541.05 519.95
L 540.6 520.15 540.65 520.1 539.7 520.4 539.6 520.45 539.45 520.45
Q 538.2 520.8 537.75 521.7
L 537.7 522.2 538 523.55
Q 537.8 524.25 535.25 525.15 532.15 526.2 531.6 526.6 531.1 527 530.55 527.8 530.1 528.6 529.7 528.7 528.35 529.2 525.75 529.45 525.2 529.55 521.6 532.6
L 521.25 532.5 519 531.3 517.85 531.9 517.55 531.6
Q 516.75 530.7 516 530.7
L 515.95 530.7
Q 515.35 530.8 513.45 531.85
L 512 532.55 511.15 531.1
Q 510.65 531.15 509.75 531.7 509.35 530.8 508.9 530.7 508.1 530.4 505.85 530.4
L 504.65 530.4 504.2 530.45
Q 503.55 530.45 503.25 530.4
L 503.15 530.4 502.6 530.35 490.6 527.9
Q 483.7 526.7 478.25 527.2 477.5 527.2 474.45 528 472.15 528.75 470.7 528.6 469.95 528.5 469.75 527.95 469.35 527.2 469.15 527.2 467 526.55 462.05 526.2 457.2 525.85 454.4 525 451.75 524.1 445.15 522.75 438.55 521.5 435.4 520.5 432.5 519.6 429.65 518.2 425.6 516.2 421.85 513.6 411.7 506.35 409.75 505.25 408.5 504.55 392.8 497.55
L 391.2 496.9 391 496.75 379.35 490.9
Q 378.25 490.05 378 489.7 377.8 489.45 377.3 488.05 377 487.05 376.8 486.7
L 376.45 486.05 376.45 486 374.75 484.35
Q 373.95 483.75 373.3 483.4
L 371.75 482.5 371.1 482
Q 370.9 481.75 370.6 479.85
L 370.05 477.1
Q 369.9 476.55 369.2 475.8 368.55 475.15 368.35 474.6 367.6 472.35 368 467.75
L 368.15 464.45 367.8 460.55
Q 367.5 459.65 366.75 458.1
L 365.55 455.6 365.4 455.15 365.35 455.05 365.3 454.85 365.15 454.55 365.1 454.3 356.65 440.25 353.1 435.35 345.35 421.6 345.2 421
Q 344.95 417.9 344.75 417.4 344.55 416.65 340.9 415.9 341 414.55 340.1 412.65 339.15 410.5 339.05 409.8 338.9 408.85 340.4 406.55 341.8 404.5 341.5 403.05 338.4 402.15 338.9 401.2 340.05 400.4 340.1 400.15 340.55 398.3 339.35 396.7 338 395 338 394.55 339.55 394.2 339.4 393.15 339.1 392.3 339 391.45
L 339.05 391.05
Q 341 381.25 342.55 376.65 342.65 376.25 344.65 373.4
L 346.75 370.4
Q 346.85 369.5 346.5 368.05 346.25 366.6 346.6 366.15 349.35 364.3 350.5 363.25 353.4 360.65 350.4 358.8
L 350.95 357.3
Q 351.05 356.4 350.85 355.55
L 350.35 352.1 347.7 352
Q 348.1 350.6 346.85 349.3
L 345.55 348.15
Q 345.45 347.55 345.95 346.25 346.4 344.85 346.15 344.1 346.05 343.65 343.8 342.2 342.4 341.2 344.2 339.7
L 342.8 338.3 344.2 334.85 342.15 333.75 342.1 332.75
Q 343.1 332.4 343.8 331.7
L 344.05 331.4 344.6 330.5
Q 344.9 329.95 345 329.45 345.4 326.65 345.95 325.35 346.55 324.3 348.25 322.05 350.1 319.6 350.7 318.35 351.8 315.75 351.7 313.4
L 357.15 314.2 357.25 315.85 357.7 318.25
Q 358.4 320.95 358.25 322.2 358.15 323.05 357.3 324.7 356.9 326.2 359.05 327.35 360.35 327.8 360.85 326.75 361.5 325.45 362 325.35 362.05 325.5 362 325.6
L 362.05 325.8 362.05 325.9 362.1 326
Q 362.65 328.9 364.2 328.8
L 364.25 328.8
Q 365.4 328.8 367.85 327.8 368.3 327.8 369.3 328.05 370.35 328.2 371.1 328.05 372 327.85 375.75 325.2
M 455.2 344.75
Q 455.15 343.85 455.35 343.7
L 459.6 341.75
Q 463.75 340 464.8 338.95 465.25 338.6 465.6 337.7 465.85 336.75 466.3 336.25 466.6 335.85 467.5 335.45
L 470.3 334.6
Q 472.95 334 473.1 332.4
L 473.3 332.3
Q 473.75 332.35 473.95 332.95 474.05 333.55 474.3 334
L 474.45 334.15
Q 476.15 335.4 476.7 333.15 477.2 331 477.95 331
L 478.15 331.05
Q 478.4 331.1 479.1 331.65
L 481.05 333
Q 482.9 334.45 484.35 334.55
L 484.5 334.55
Q 485.7 334.55 487.35 334.05
L 488.65 333.7
Q 491.9 332.55 492.7 332.45 502.7 330.85 504.35 331
L 504.55 331.05 504.85 331.85
Q 505.2 332.65 505.75 332.95 506.05 333.15 510.85 334.85 514.7 336.2 515.3 337.25 515.6 337.75 515.3 339.6 515.15 341 515.45 341.75
L 515.7 342.15
Q 517.25 341.75 518.6 342.15 519.8 342.45 520.95 343.35
L 522.6 344.85
Q 524.05 346.2 525 347.2 525.7 347.7 527.25 347.85 527.35 347.95 526.9 349.4 526.4 350.85 526.55 351.6
L 527.75 353.35
Q 528.9 355.3 529.2 356.7 529.85 358.75 530.05 363.2
L 530.4 366.8
Q 530.5 367.7 530.75 369
L 530.75 369.05 530.8 369.15
Q 530.9 369.5 531.75 370.4 532.5 371.15 532.65 371.95
L 532.7 372.1 532.8 372.6 532.85 372.75 533.25 377.3
Q 533.4 379.7 533.3 383.4 533.15 390.95 532.15 394.65 531.35 397.6 528.7 401.1 526.15 404.6 525.65 405.65
L 523.7 411.55
Q 522.35 415.1 520.45 417.15
L 515.45 421.15 515.45 421.2 515.3 421.2 515.25 421.25
Q 514.05 421.8 511.15 422
L 511.05 422
Q 507.35 422.3 506.5 422.55
L 498.55 425.05
Q 493.7 426.55 489.9 426.6
L 489.65 426.6 472.7 423.1
Q 469.4 422.05 464.8 419.2
L 459.85 415.85
Q 458.8 415.05 457.7 413.95 451.8 407.75 447.2 399.5
L 445.95 397.25 441.55 383.75 441.5 382.7
Q 441.45 380.85 442.1 378.5 442.7 376.55 442.85 375.5
L 443.75 366.2
Q 444.15 363.6 445.8 357.55 445.9 357.05 446.7 355.5
L 447.65 353.75 447.7 353.75 449.75 354.15 449.1 349.3
Q 453.95 348.2 455.1 345.9 455.2 345.6 455.2 344.75
M 579.2 431.35
L 579.15 431.5
Q 577.4 435.85 576.95 437.3 576.6 438.05 576.6 438.3
L 576.7 440.25 577.1 441.35 577.9 442.45
Q 578.9 443.5 580.85 444.3
L 581.4 444.5
Q 582.85 445 584.25 445
L 584.35 445 587.1 444.4
Q 587.85 444.05 588.65 443.5
L 588.3 441.35
Q 589.45 440.45 590.9 441.2
L 592.65 442.05
Q 593.25 441.9 593.8 440.8 594.45 439.45 594.6 439.4 595.2 439.1 596.5 439.1 597.7 438.9 598.2 437.15 600.25 439.65 604.05 439.25
L 602.8 446.55
Q 604.45 449.75 608.6 451.2 615.15 453.3 615.7 453.7 615.65 455.35 614.05 456.6
L 613.95 456.65 613.85 456.75 612.55 457.75 598.2 473.15
Q 590.8 482.25 587.9 489.9 587.6 490.85 587.1 493.5 586.6 495.65 585.3 496.7 585.25 496.9 584.35 497.15 583.5 497.3 583.15 497.55
L 573.85 504.4
Q 573.1 504.9 572.6 505.05
L 571.65 505.15
Q 570.7 505.15 568.9 504.85 566.1 504.3 564.95 504.7
L 565.05 504.55 566.65 502.6
Q 567.15 501.85 567.4 500.45 567.4 499 567.55 497.85
L 567.75 495.9
Q 567.9 495.05 568.7 494 569.45 492.9 569.6 492.2 569.8 491.5 570.05 488.7 570.05 486.3 570.35 485.15
L 566.7 482.05
Q 564.85 483.35 563.4 484.1
L 556.55 486.7
Q 555.65 486.7 555.1 486.3 553.2 485 553.9 483.1 555.15 480.85 555.15 479.6 555.3 479.1 554.85 477.95 554.5 476.85 554.65 476.35 554.65 476.1 555.85 475.35 557.25 474.5 557.7 473.7
L 557.75 473.6
Q 557.8 473.55 557.75 473.55
L 558.2 472.5
Q 558.45 471.7 558.5 470.55 558.7 468.5 558.9 467.85
L 561 465.2
Q 563.05 462.7 563.35 461.75
L 563.35 461.7
Q 563.45 461.3 563.4 460.9
L 563.15 458.8 563.15 458.7
Q 562.65 456.6 562.9 455.45 561 454.8 558.2 456.3 554.6 458.15 554.25 458.2
L 550.1 458.25 548.4 458.45
Q 547.8 458.6 547.5 458.8
L 547.1 458.95
Q 546.5 459.25 546.05 459.7 544.35 461.15 542.8 461.95 542.4 462.2 539.15 463.7 538.75 463.9 538.5 464.25
L 538.3 464.6
Q 538 465.2 537.75 465.3 536.05 465.6 534.1 464.3 531 462.05 530.65 461.95
L 530.6 455.8 532.7 454.95 534.1 441.35
Q 532.3 440.6 530.85 441.9 530.25 442.5 529.5 443.5 525.95 443.5 524.55 443.7 521.7 444 522.45 447
L 518.3 446.3
Q 519.05 445.4 519.3 444.75
L 519.35 443.25
Q 518.5 441.75 518.45 440.95 518.4 440.75 519.3 437.25
L 520.35 433.45
Q 520.5 433.25 521.55 432.55
L 521.6 432.5 521.65 432.5 521.95 432.25
Q 522.45 431.85 522.5 431.2 522.65 429.95 521.8 427.35 521.3 425.8 521.3 424.9
L 521.35 424.55 521.35 424.5 521.4 424.5
Q 521.8 423.9 523.8 422.9 526 421.85 526.35 421.45 526.75 421.1 527.45 419.55 528.15 418.05 528.6 417.8
L 529.1 417.6 530.9 417.3 531.05 417.25 531.25 417.25
Q 533 416.95 534.15 415.8 534.9 415 535.45 413.4 535.85 411.85 536.5 411.1
L 541.65 412.6 541.6 414.3
Q 543.9 415.55 545.25 413.95 546.95 411.45 547.65 411.3 548.45 411.05 550.75 411.05 553.2 411.25 554 411.1 551.6 415.95 552.1 419.7 552.45 422.2 552.3 422.85 551.95 424.1 551.95 424.8 551.9 425.3 553.25 428.2 554.6 431.15 555.05 431.45
L 555.1 431.5
Q 555.75 431.85 557 432.2
L 558.85 432.6
Q 559.95 432.85 561.05 433
L 561.2 433
Q 561.55 433 565.6 431.85
L 567.15 431.55 567.4 431.55
Q 568.55 431.55 569.5 431.75
L 570.65 432.25
Q 571.2 430.3 572 429.05 573 427.75 574.05 427.2
L 574.15 427.2 574.35 427.1 574.5 427.05 574.55 427 580.7 425.2 580.75 425.2
Q 581 425.6 580.7 426.8 580.4 428.35 579.2 431.35
M 483.85 376.9
Q 483.95 379.2 484.7 379.65 485.2 380 486.3 380.35 486.9 380.8 487.5 381.95 487.95 382.3 488.35 382.3 489 382.45 490.15 382.1 491.75 381.65 491.85 378.9 491.85 376.25 494.1 375.5
L 491.7 372.55
Q 491.05 371.8 490.25 371.6 489.4 371.35 488.35 371.75 487.9 372 487.5 372.75 487.2 373.5 487.05 373.6 486.45 374.05 484.95 374.05 483.8 374.3 483.85 376.9
M 567.6 279.75
L 567.55 279.65
Q 567.45 279.4 566.85 278.6 566.2 277.85 565.3 277.35 565.15 276.85 564.7 276.55 564.2 276.15 563.5 276.3 562.95 276.3 562.5 276.9 562.25 277.2 562.25 277.6
L 562.2 277.6
Q 560.9 278.3 560.1 278.85 558.55 279.8 557.35 281.05
L 557.3 281.1
Q 555.15 283.2 553.9 285.45
L 553.35 285.4
Q 553 285.35 552.5 285.5 552 285.8 551.9 286.05 551.65 286.4 551.55 286.9
L 551.55 287.55 550.1 287.8
Q 549.55 287.85 549.15 288.25
L 548.9 288.5
Q 548.7 288.55 548.6 288.75
L 545.15 291.55
Q 544.7 291.95 544.55 292.65
L 544.45 293.5
Q 543.55 293.95 542.8 294.55
L 542.7 294.6
Q 541.8 295.2 541.25 296.2
L 541.25 296.25 540.8 297.1
Q 539.45 296.75 538.4 296.7 537.95 296.7 537.55 296.95 537.05 296.6 536.4 296.75
L 536.05 296.9
Q 536.05 296.5 535.9 296.2 535.6 295.6 534.95 295.45
L 533.4 294.85 533.45 294.9
Q 531.3 294 531.3 291.7
L 531.3 290.35 531.25 290
Q 531.2 289.55 530.8 289.25
L 530.7 289.15 531.3 288.5
Q 533.15 286.4 532 284
L 532 283.95
Q 531.85 283.6 531.45 283.1 531.15 282.7 530.85 282.6 530.55 282.45 530.2 282.45
L 525.2 282.45
Q 524.55 282.45 524.1 282.9 523.6 283.4 523.6 284.05
L 523.65 284.4
Q 523.4 284.65 523.25 285.05
L 521.35 290.35
Q 521.2 290.8 521.35 291.35 521.05 291.5 520.9 291.9 520.6 292.45 520.75 293.05 520.9 293.6 521.3 293.9
L 521.25 293.95
Q 520.8 294.3 520.75 294.85 520.6 295.35 520.9 295.85 521.1 296.3 521.65 296.55
L 523.75 297.5 523.65 297.9
Q 523.5 298.55 523.85 299.1 524.3 299.65 524.7 299.75
L 525.05 299.85
Q 524.7 301 525 302.6 525 303.05 525.3 303.35 525.5 303.6 526 303.85
L 529.9 305.3
Q 530.1 305.4 530.55 305.4
L 531.2 305.25 531.45 305.15
Q 531.85 304.9 532.05 304.6
L 538.15 307
Q 538.75 307.3 539.35 307 540 306.75 540.2 306.1 540.5 305.5 540.2 304.9
L 540.15 304.85 541.8 305.6
Q 542.4 305.75 542.9 305.65 543.5 305.35 543.8 304.85 544.1 304.3 543.9 303.7
L 543.8 303.25 545.25 303.5
Q 545.6 303.55 546.1 303.4 546.45 303.3 546.8 302.85
L 547.35 302.3
Q 547.9 301.8 548.65 301.4
L 548.75 301.35
Q 549.1 301.1 549.35 301.05
L 549.95 300.65
Q 550.2 300.4 550.35 300
L 551.15 297.35 553.45 295.35
Q 553.95 294.9 554 294.2 554.05 293.55 553.65 293.05
L 553.6 293 554.4 293.3
Q 554.7 293.45 555.15 293.35 555.5 293.35 555.85 293.1
L 557 292.2 557.05 292.1
Q 560.45 289.25 562.65 285.35 565.6 284.2 567.55 281.95
L 567.85 281.35
Q 567.95 280.85 567.9 280.6 567.85 280.15 567.6 279.75
M 476.85 278.1
Q 476.8 277.05 476 276.2 475.75 275.95 475.4 275.8
L 474.75 275.65 470.75 275.85
Q 470.15 275.95 469.85 276.25 469.45 276.45 469.3 277 469.15 277.45 469.3 278
L 470.2 280.8 469.9 280.9
Q 469.25 281.05 468.95 281.65 468.65 282.3 468.85 282.85 469.1 283.9 468.6 284.8
L 468.55 284.85
Q 467.5 287.05 469.05 288.9
L 469 289 469.1 289.35 468.8 289.5
Q 468.15 289.8 468 290.4 467.8 290.95 468.1 291.6
L 471.1 297.65
Q 471.45 298.3 472 298.45 472.5 298.6 473.05 298.45 473.4 299.3 474.1 300 474.4 300.35 474.8 300.65 475.25 301.1 475.95 301 476.3 301.5 476.95 301.65 477.55 301.8 478.1 301.5
L 479 301 478.95 301.15
Q 478.95 301.85 479.35 302.3 479.8 302.85 480.45 302.85
L 484 303.2
Q 484.6 303.25 485.15 302.8 485.6 302.45 485.7 301.75 485.8 301.35 485.65 301.1
L 486 300.6 486.05 300.25 491.35 299.55
Q 492.9 299.25 493.65 298.35
L 493.85 298.25 494.25 297.75
Q 494.55 297.3 494.55 296.9 494.65 296.35 494.35 295.95
L 493.7 294.8 494 294.4 494.8 294.65 495.55 294.7
Q 496.05 294.6 496.2 294.45
L 500.95 291 501.3 290.55
Q 501.7 289.9 501.7 289.5
L 502.35 286.75 502.3 286.75
Q 502.5 286.2 503.15 286.25 503.65 286.3 504.1 286.1 504.55 285.85 504.8 285.4 505 284.95 504.95 284.45
L 504.85 283.65 505.4 283.7
Q 505.95 283.7 506.35 283.35
L 507.3 282.35
Q 507.65 282.35 508.15 282.1 508.7 281.8 508.85 281.1 509 280.5 508.7 279.9 507.1 277.3 507.55 274.5 507.7 273.85 507.3 273.3 506.8 272.7 506.25 272.7 505.65 272.5 505.1 272.95 504.55 273.3 504.45 273.95
L 504.35 274.55 504.1 274.6
Q 503.25 274.05 502.55 274.5 502 274.65 501.7 275.25 501.35 275.8 501.1 276.45 499 276.7 498.25 278.7 497.6 280.15 496.7 281.4 494.55 284.2 491.75 287 489.25 289.6 486 292.8 485.4 292.4 484.8 292.6 484.25 292.65 483.7 292.9
L 483.35 293 482.7 293.5 482.6 293.15
Q 482.3 292.5 481.7 292.3 481.15 292.1 480.5 292.35 479.85 292.7 479.25 292.2
L 479.25 292.15
Q 478.1 291.25 477.05 291.05
L 477.05 291
Q 477.2 288.2 475.85 285.5 476.15 285.4 476.55 285.05 476.95 284.45 476.9 283.9
L 476.65 281.3 476.55 280.8
Q 476.9 280.4 476.9 279.8
L 476.85 278.1 Z"/>
</g>
</g>
</g>

<g transform="matrix( 1, 0, 0, 1, -762.8,773.4) ">
<g>
<g>
<path fill="#FFFFFF" stroke="none" d="
M 1160.1 -499.15
Q 1159.45 -497.45 1156.6 -497.7 1158.5 -494.75 1156.75 -492.4 1155.95 -491.35 1154.55 -490.1 1154.4 -489.8 1154.5 -488.35 1154.5 -486.9 1154.3 -486.3
L 1152.35 -476.45
Q 1152.15 -475.7 1151.45 -474.15 1150.8 -472.45 1151 -471.5 1149.8 -470.85 1148.15 -469.2
L 1145.95 -466.75 1145.45 -466.5 1144.6 -466.2
Q 1143.8 -465.95 1143.55 -465.6 1143.35 -465.05 1142.95 -461.15 1142.55 -457.3 1142.95 -457 1147.9 -458.05 1147.95 -452.9 1148.05 -450.35 1146.3 -444.25
L 1151 -444.2
Q 1154.05 -444.2 1155.45 -445 1156.6 -445.7 1159 -446.35 1161.8 -447.05 1163.05 -447.15 1164.7 -447.2 1167.75 -447.15 1170.35 -447 1171.5 -447.05 1172 -447 1172.35 -447.05
L 1169.65 -430.15 1175.7 -432.1
Q 1178.85 -433.2 1178.55 -437.25 1179.2 -437.25 1182 -436.55 1183.9 -435.95 1185.55 -436.6 1185.7 -436.65 1186.1 -437.5 1186.5 -438.05 1187.7 -438
L 1194.95 -436.2 1195 -436.2 1195.75 -435.3
Q 1196.15 -434.65 1196.65 -433.55 1197.2 -432.4 1197.4 -431.8
L 1197.75 -430.65 1197.75 -430.55
Q 1197.75 -429.75 1197.45 -428.65 1197.15 -427.6 1197.15 -427.1
L 1197.5 -421.3
Q 1197.65 -418.1 1197.05 -415.4
L 1201.1 -415.35 1201.1 -413.3 1211.35 -417.2
Q 1211.75 -417.35 1212.25 -418
L 1212.7 -418.5
Q 1212.95 -418.75 1213.25 -418.85
L 1215.2 -419.05
Q 1216.6 -419.05 1218.85 -418.75 1222.3 -418.65 1222.75 -421.85
L 1225.85 -421.45 1226.2 -418.9
Q 1226.95 -419.35 1227 -420.4
L 1227.3 -421.9
Q 1227.45 -422.3 1228.1 -422.5 1228.6 -422.65 1228.6 -422.9 1228.6 -424 1227.85 -428.3 1227.15 -432.45 1227.3 -433.85 1227.45 -434.95 1229.6 -438.8 1231.8 -442.4 1231.85 -444.75 1231.9 -445.25 1231.35 -446.35 1230.8 -447.35 1230.95 -447.85 1231.05 -448.15 1232.1 -449.7 1233 -451 1232.65 -452 1231.9 -451 1230.25 -450.85 1228.25 -450.6 1228.1 -450.45 1227.95 -450.4 1227.5 -449.35 1227.1 -448.3 1226.55 -448.1 1225.8 -447.75 1224.4 -447.85 1222.95 -447.9 1222.55 -447.65
L 1222.15 -446.75
Q 1221.85 -446.05 1221.35 -445.85 1221.1 -445.65 1218.95 -445.75 1216.95 -445.8 1216.25 -445.65 1215.8 -447.25 1216.6 -449.6 1217.6 -452.45 1217.7 -453.1
L 1217.7 -453.6
Q 1217.65 -454.4 1217.25 -455.75 1216.95 -456.95 1216.95 -457.55
L 1217 -457.85
Q 1217.15 -458.4 1218.25 -459 1219.4 -459.55 1219.55 -460.25 1219.75 -460.8 1219.75 -463.55 1219.8 -466.1 1219.55 -466.65
L 1216.45 -468.9 1215.15 -469.65 1214.85 -469.7 1214.8 -469.7
Q 1213.35 -469.6 1210.95 -468.25
L 1210.8 -468.15
Q 1207.7 -466.5 1206.1 -466.65 1205.75 -464.15 1204.05 -463.6 1201.9 -463.45 1200.35 -463.05 1198.7 -462.65 1197.55 -462.55 1195.65 -462.3 1195.35 -462.2 1191.4 -460.65 1189.8 -460.6
L 1189.5 -460.6 1187.7 -462
Q 1187.2 -463.2 1187.35 -465.7
L 1189.15 -472.4
Q 1189.5 -473.65 1191.15 -474.85 1192.7 -475.9 1192.85 -476.4 1193 -476.8 1193.55 -480.55 1194 -483.6 1194.65 -485.05 1194.9 -485.55 1197 -487.7 1198.35 -489.1 1197.75 -491.4 1193.3 -490.85 1189.75 -490.6 1183.95 -490.25 1182.6 -491.65 1180.45 -494.2 1182.55 -500.75 1184.95 -508.45 1184.65 -510.35 1183.3 -510.9 1181.4 -510.45 1179.2 -509.75 1178.15 -509.6 1177.8 -509.55 1176.9 -509.9 1176.15 -510.3 1175.9 -510.3
L 1175.85 -510.3
Q 1175.8 -509.6 1175.55 -509.2
L 1175.35 -508.95 1167.45 -505.2
Q 1161.05 -502.1 1160.85 -501.8 1160.5 -501.2 1160.1 -499.15
M 1378.2 -326
Q 1378.05 -325.95 1377.4 -324.6 1376.85 -323.5 1376.25 -323.35
L 1374.5 -324.2
Q 1373.05 -324.95 1371.9 -324.05
L 1372.25 -321.9
Q 1371.45 -321.35 1370.7 -321
L 1367.95 -320.4 1367.85 -320.4
Q 1366.45 -320.4 1365 -320.9
L 1364.45 -321.1
Q 1362.5 -321.9 1361.5 -322.95
L 1360.7 -324.05 1360.3 -325.15 1360.2 -327.1
Q 1360.2 -327.35 1360.55 -328.1 1361 -329.55 1362.75 -333.9
L 1362.8 -334.05
Q 1364 -337.05 1364.3 -338.6 1364.6 -339.85 1364.3 -340.2
L 1358.15 -338.4 1358.1 -338.35 1357.95 -338.3 1357.75 -338.2 1357.65 -338.2
Q 1356.6 -337.65 1355.6 -336.35 1354.8 -335.1 1354.25 -333.15
L 1354.25 -333.1 1353.1 -333.65
Q 1352.15 -333.85 1351 -333.85
L 1350.75 -333.85 1349.2 -333.55
Q 1345.15 -332.4 1344.8 -332.4
L 1344.65 -332.4
Q 1343.55 -332.55 1342.45 -332.8
L 1340.6 -333.2
Q 1339.35 -333.55 1338.7 -333.9
L 1338.65 -333.95
Q 1338.2 -334.25 1336.85 -337.2 1335.5 -340.1 1335.55 -340.6 1335.55 -341.3 1335.9 -342.55 1336.05 -343.2 1335.7 -345.7 1335.2 -349.45 1337.6 -354.3 1336.8 -354.15 1334.35 -354.35 1332.05 -354.35 1331.25 -354.1 1330.55 -353.95 1328.85 -351.45 1327.5 -349.85 1325.2 -351.1
L 1325.25 -352.8 1320.1 -354.3
Q 1319.45 -353.55 1319.05 -352 1318.5 -350.4 1317.75 -349.6 1316.6 -348.45 1314.85 -348.15
L 1314.65 -348.15 1314.5 -348.1 1312.7 -347.8 1312.2 -347.6
Q 1311.75 -347.35 1311.05 -345.85 1310.35 -344.3 1309.95 -343.95 1309.6 -343.55 1307.4 -342.5 1305.4 -341.5 1305 -340.9
L 1304.95 -340.9 1304.95 -340.85 1304.9 -340.5
Q 1304.9 -339.6 1305.4 -338.05 1306.25 -335.45 1306.1 -334.2 1306.05 -333.55 1305.55 -333.15
L 1305.25 -332.9 1305.2 -332.9 1305.15 -332.85
Q 1304.1 -332.15 1303.95 -331.95
L 1302.9 -328.15
Q 1302 -324.65 1302.05 -324.45 1302.1 -323.65 1302.95 -322.15
L 1302.9 -320.65
Q 1302.65 -320 1301.9 -319.1
L 1306.05 -318.4
Q 1305.3 -321.4 1308.15 -321.7 1309.55 -321.9 1313.1 -321.9 1313.85 -322.9 1314.45 -323.5 1315.9 -324.8 1317.7 -324.05
L 1316.3 -310.45 1314.2 -309.6 1314.25 -303.45
Q 1314.6 -303.35 1317.7 -301.1 1319.65 -299.8 1321.35 -300.1 1321.6 -300.2 1321.9 -300.8
L 1322.1 -301.15
Q 1322.35 -301.5 1322.7 -301.7 1326 -303.2 1326.4 -303.45 1327.95 -304.25 1329.65 -305.7 1330.1 -306.15 1330.7 -306.45 1331.25 -306.8 1332 -306.95
L 1333.7 -307.15 1337.85 -307.2
Q 1338.2 -307.25 1341.8 -309.1 1344.6 -310.6 1346.5 -309.95 1346.25 -308.8 1346.75 -306.7
L 1347 -304.5
Q 1347.05 -304.1 1346.95 -303.7
L 1346.95 -303.65
Q 1346.65 -302.7 1344.6 -300.2
L 1342.5 -297.55
Q 1342.3 -296.9 1342.1 -294.85 1342.05 -293.7 1341.8 -292.9
L 1341.35 -291.85
Q 1341.4 -291.85 1341.35 -291.8
L 1341.3 -291.7
Q 1340.85 -290.9 1339.45 -290.05 1338.25 -289.3 1338.25 -289.05 1338.1 -288.55 1338.45 -287.45 1338.9 -286.3 1338.75 -285.8 1338.75 -284.55 1337.5 -282.3 1336.8 -280.4 1338.7 -279.1 1339.25 -278.7 1340.15 -278.7
L 1347 -281.3 1350.3 -283.35 1353.95 -280.25
Q 1353.65 -279.1 1353.65 -276.7 1353.4 -273.9 1353.2 -273.2 1353.05 -272.5 1352.3 -271.4 1351.5 -270.35 1351.35 -269.5
L 1351.15 -267.55
Q 1351 -266.4 1351 -264.95 1350.75 -263.55 1350.25 -262.8
L 1348.65 -260.85 1348.55 -260.7
Q 1349.7 -261.1 1352.5 -260.55 1354.3 -260.25 1355.25 -260.25
L 1356.1 -260.35
Q 1356.7 -260.5 1357.45 -261
L 1365.95 -267.2 1366.75 -267.85
Q 1367.1 -268.1 1367.95 -268.25 1368.85 -268.5 1368.9 -268.7 1370.2 -269.75 1370.7 -271.9 1371.2 -274.55 1371.5 -275.5 1374.4 -283.15 1381.8 -292.25
L 1395.2 -306.8 1397.45 -308.65 1397.55 -308.75 1397.65 -308.8
Q 1399.25 -310.05 1399.3 -311.7 1398.75 -312.1 1392.2 -314.2 1388.05 -315.65 1386.4 -318.85
L 1387.65 -326.15
Q 1383.85 -325.75 1381.8 -328.25 1381.3 -326.5 1380.1 -326.3 1378.8 -326.3 1378.2 -326 Z"/>
</g>
</g>
</g>

<g transform="matrix( 1, 0, 0, 1, -762.8,773.4) ">
<g>
<g>
<path fill="#FFF0BB" stroke="none" d="
M 1240.9 -428.85
Q 1240.9 -431.5396484375 1241.65 -432.8 1240.85 -431.55 1240.85 -428.85
L 1240.9 -428.85 Z"/>
</g>
</g>
</g>
</g>

<g id="Layer_1"/>
</svg>
